<svg width="32" height="32" viewBox="0 0 32 32" fill="none" xmlns="http://www.w3.org/2000/svg">
<path d="M15.9523 1.99402C8.24043 1.99402 1.99414 8.2403 1.99414 15.9522C1.99414 22.1287 5.98967 27.3456 11.538 29.195C12.236 29.3172 12.4977 28.8984 12.4977 28.532C12.4977 28.2005 12.4802 27.1013 12.4802 25.9323C8.97323 26.5779 8.06595 25.0774 7.78678 24.2922C7.62975 23.8909 6.94929 22.6521 6.35607 22.3206C5.86753 22.0589 5.16963 21.4133 6.33862 21.3959C7.43783 21.3784 8.22298 22.4079 8.48469 22.8266C9.74093 24.9378 11.7474 24.3446 12.55 23.9781C12.6721 23.0709 13.0385 22.4602 13.4398 22.1112C10.3342 21.7623 7.08888 20.5584 7.08888 15.2194C7.08888 13.7014 7.62976 12.4452 8.51959 11.4681C8.38001 11.1192 7.89147 9.68846 8.65917 7.76921C8.65917 7.76921 9.82817 7.40281 12.4977 9.19993C13.6143 8.88587 14.8008 8.72884 15.9872 8.72884C17.1737 8.72884 18.3601 8.88587 19.4768 9.19993C22.1463 7.38537 23.3153 7.76921 23.3153 7.76921C24.083 9.68846 23.5944 11.1192 23.4548 11.4681C24.3447 12.4452 24.8856 13.684 24.8856 15.2194C24.8856 20.5758 21.6228 21.7623 18.5171 22.1112C19.0231 22.5474 19.4593 23.3849 19.4593 24.6935C19.4593 26.5604 19.4419 28.0609 19.4419 28.532C19.4419 28.8984 19.7036 29.3346 20.4015 29.195C23.1724 28.2596 25.5803 26.4787 27.2861 24.1031C28.9919 21.7275 29.9097 18.8768 29.9105 15.9522C29.9105 8.2403 23.6642 1.99402 15.9523 1.99402Z" fill="white"/>
</svg>
