<svg width="29" height="29" viewBox="0 0 29 29" fill="none" xmlns="http://www.w3.org/2000/svg">
<path d="M18.9063 9.45315C20.7867 9.45315 22.59 10.2001 23.9196 11.5297C25.2492 12.8593 25.9962 14.6627 25.9962 16.543V24.8145H21.2696V16.543C21.2696 15.9162 21.0206 15.3151 20.5774 14.8719C20.1342 14.4287 19.5331 14.1797 18.9063 14.1797C18.2795 14.1797 17.6784 14.4287 17.2352 14.8719C16.792 15.3151 16.543 15.9162 16.543 16.543V24.8145H11.8164V16.543C11.8164 14.6627 12.5634 12.8593 13.893 11.5297C15.2226 10.2001 17.026 9.45315 18.9063 9.45315Z" stroke="white" stroke-width="2.36329" stroke-linecap="round" stroke-linejoin="round"/>
<path d="M7.08986 10.6348H2.36328V24.8145H7.08986V10.6348Z" stroke="white" stroke-width="2.36329" stroke-linecap="round" stroke-linejoin="round"/>
<path d="M4.72657 7.08986C6.03178 7.08986 7.08986 6.03178 7.08986 4.72657C7.08986 3.42136 6.03178 2.36328 4.72657 2.36328C3.42136 2.36328 2.36328 3.42136 2.36328 4.72657C2.36328 6.03178 3.42136 7.08986 4.72657 7.08986Z" stroke="white" stroke-width="2.36329" stroke-linecap="round" stroke-linejoin="round"/>
</svg>
