<svg width="595" height="188" viewBox="0 0 595 188" fill="none" xmlns="http://www.w3.org/2000/svg">
<path d="M42.9741 135.607C39.4028 138.712 39.4028 138.712 37.4443 142.967C37.0987 148.946 37.0987 148.946 37.4443 154.006C38.6608 154.006 39.8774 154.006 41.1308 154.006C42.2143 151.33 42.2143 151.33 43.3197 148.601C46.0498 142.605 46.0498 142.605 51.3841 141.357C54.1081 141.217 56.8361 141.127 59.5637 141.127C60.7803 143.555 61.9968 145.984 63.2503 148.486C65.0751 148.486 66.9 148.486 68.7801 148.486C68.7801 149.7 68.7801 150.915 68.7801 152.166C69.9967 152.166 71.2132 152.166 72.4667 152.166C74.7853 162.147 74.7853 162.147 71.6602 171.255C70.7098 172.241 69.7594 173.228 68.7801 174.244C68.7801 175.459 68.7801 176.673 68.7801 177.924C69.8826 177.621 70.9851 177.317 72.1211 177.004C76.3624 175.879 76.3624 175.879 81.6831 176.084C81.0748 177.299 80.4665 178.513 79.8398 179.764C82.273 178.55 84.7061 177.335 87.213 176.084C87.213 174.87 87.213 173.656 87.213 172.405C89.6461 171.19 92.0792 169.976 94.5861 168.725C92.153 166.296 89.7198 163.868 87.213 161.365C90.2544 161.365 93.2958 161.365 96.4294 161.365C96.4294 162.58 96.4294 163.794 96.4294 165.045C99.9233 165.145 103.418 165.216 106.913 165.275C108.859 165.318 110.805 165.36 112.81 165.404C118.59 165.042 122.561 163.813 127.765 161.365C127.535 157.916 127.535 157.916 125.922 154.006C119.222 150.584 115.978 150.037 108.641 151.936C107.044 152.619 105.448 153.302 103.803 154.006C103.194 152.791 102.586 151.577 101.959 150.326C100.42 151.749 100.42 151.749 98.8487 153.201C94.835 156.233 94.835 156.233 90.4387 155.731C84.6319 153.755 79.4413 151.125 74.0651 148.191C70.6234 146.646 70.6234 146.646 65.0935 146.646C64.9415 145.546 64.7894 144.445 64.6327 143.311C60.9017 132.449 52.8828 132.91 42.9741 135.607Z" fill="#758D9C"/>
<path d="M254.951 58.3323C249.652 62.0121 249.652 62.0121 245.735 65.6918C248.776 70.5491 251.818 75.4064 254.951 80.4109C255.56 79.1966 256.168 77.9822 256.795 76.7311C259.836 77.9454 262.877 79.1598 266.011 80.4109C264.186 80.4109 262.361 80.4109 260.481 80.4109C261.089 82.2324 261.698 84.0538 262.324 85.9305C263.389 86.1582 264.453 86.3859 265.55 86.6205C270.23 87.5443 270.23 87.5443 274.191 92.3701C279.181 97.2296 281.297 98.4507 288.13 98.8097C289.955 98.2025 291.78 97.5954 293.66 96.9698C298.523 97.6947 298.523 97.6947 302.877 98.8097C300.308 93.0877 297.272 88.9799 292.976 84.4212C291.766 83.1334 290.555 81.8456 289.308 80.5187C288.045 79.1929 286.782 77.8671 285.481 76.5011C284.225 75.1611 282.969 73.8211 281.675 72.4405C266.976 56.892 266.976 56.892 254.951 58.3323Z" fill="#8AA5B9"/>
<path d="M4.2645 122.728C-0.422832 127.406 0.0293356 129.233 0.00190467 135.722C0.213797 148.103 2.90396 158.408 9.79436 168.725C11.6762 169.578 11.6762 169.578 13.5961 170.449C17.448 172.084 17.448 172.084 18.6652 175.854C19.0385 180.077 18.4607 183.108 17.1675 187.123C26.1535 183.904 26.1535 183.904 28.2272 179.764C30.5083 178.91 30.5083 178.91 32.8354 178.039C35.1165 177.071 35.1165 177.071 37.4436 176.084C38.0519 174.263 38.6602 172.441 39.2869 170.564C41.72 170.564 44.1532 170.564 46.66 170.564C46.66 169.35 46.66 168.136 46.66 166.885C44.282 165.957 41.9004 165.039 39.5173 164.125C38.1915 163.613 36.8656 163.1 35.4995 162.572C31.9138 161.365 31.9138 161.365 28.2272 161.365C23.8123 157.527 20.846 153.992 17.8587 148.946C17.0223 147.58 16.1859 146.214 15.3242 144.806C14.1076 144.806 12.8911 144.806 11.6376 144.806C11.4143 143.521 11.1909 142.235 10.9608 140.911C10.6519 139.236 10.343 137.562 10.0248 135.837C9.72538 134.172 9.42598 132.507 9.11752 130.791C7.95107 126.407 7.95107 126.407 4.2645 122.728Z" fill="#99AAB5"/>
<path d="M85.3697 54.6524C83.1808 58.4471 83.1808 58.4471 81.6831 62.0119C79.25 61.4047 76.8169 60.7976 74.31 60.172C70.5082 63.7368 70.5082 63.7368 66.9369 69.3714C66.8324 75.0394 67.6661 80.3825 68.7801 85.9303C69.9967 84.1089 71.2133 82.2874 72.4667 80.4107C74.2987 77.9491 76.1398 75.4942 77.9966 73.0512C78.6048 75.4798 79.2131 77.9085 79.8398 80.4107C81.9498 78.2477 81.9498 78.2477 84.1024 76.041C91.8353 69.5751 101.241 67.7862 111.176 67.5315C113.669 68.6847 116.133 69.9047 118.549 71.2113C124.539 70.5213 124.539 70.5213 129.609 69.3714C129.609 67.5499 129.609 65.7284 129.609 63.8518C116.152 53.544 101.917 49.1467 85.3697 54.6524Z" fill="#8DA7B9"/>
<path d="M218.086 32.5735C218.086 33.7878 218.086 35.0022 218.086 36.2533C216.194 36.9363 216.194 36.9363 214.263 37.6332C207.933 40.3325 202.159 43.7011 196.312 47.2926C195.211 47.9472 194.11 48.6018 192.975 49.2762C190.218 50.9621 187.553 52.7963 184.907 54.6521C184.907 55.8664 184.907 57.0807 184.907 58.3319C188.557 57.1175 192.206 55.9032 195.967 54.6521C195.967 57.0807 195.967 59.5094 195.967 62.0116C203.34 62.0116 203.34 62.0116 206.796 58.6768C208.735 56.6846 208.735 56.6846 210.713 54.6521C212.614 53.7414 214.515 52.8306 216.473 51.8923C222.041 48.9927 223.459 47.564 225.459 41.7729C230.326 42.3801 235.192 42.9872 240.206 43.6128C240.206 42.3985 240.206 41.1842 240.206 39.933C246.288 39.3259 252.371 38.7187 258.638 38.0932C258.638 39.3834 258.638 40.6736 258.638 42.0029C261.157 49.2293 265.528 51.6388 271.707 55.8811C275.435 58.323 275.435 58.323 278.915 62.0116C280.739 62.0116 282.564 62.0116 284.444 62.0116C282.001 54.808 279.057 50.4059 273.615 45.1077C272.365 43.8673 271.115 42.6269 269.828 41.3489C260.966 33.789 254.001 33.9872 242.74 34.2984C234.109 34.4916 226.314 32.5735 218.086 32.5735Z" fill="#92A0A7"/>
<path d="M426.377 93.2899C435.99 100.9 444.091 101.051 456.035 101.612C461.43 102.032 461.43 102.032 464.813 105.307C470.903 109.462 477.233 108.517 484.326 108.239C493.042 107.985 500.754 108.027 509.325 109.849C513.588 108.124 513.588 108.124 516.698 106.169C516.698 104.955 516.698 103.74 516.698 102.489C517.839 102.831 518.979 103.172 520.154 103.524C524.071 104.329 524.071 104.329 527.758 102.489C526.541 100.061 525.325 97.632 524.071 95.1297C521.964 95.1511 519.856 95.1724 517.685 95.1944C514.937 95.2117 512.188 95.2284 509.44 95.2447C508.049 95.2602 506.658 95.2756 505.225 95.2915C501.676 95.3073 498.127 95.2259 494.579 95.1298C493.971 94.5226 493.362 93.9154 492.736 93.2899C489.36 93.1086 485.978 93.0512 482.597 93.0599C480.754 93.0551 478.91 93.0504 477.01 93.0455C472.459 93.2899 472.459 93.2899 470.616 95.1298C466.175 95.3648 461.81 95.4705 457.368 95.4747C454.946 95.5008 452.525 95.5269 450.03 95.5538C441.357 95.0331 434.603 90.5532 426.377 93.2899Z" fill="#B3C6D2"/>
<path d="M197.81 4.97515C197.81 6.79663 197.81 8.61811 197.81 10.4948C199.863 9.88763 201.916 9.28047 204.031 8.65491C215.845 5.70169 228.392 5.51038 240.206 8.65491C236.819 12.0355 231.414 11.6798 226.842 12.3347C214.974 14.05 214.974 14.05 209.367 15.267C203.97 16.2312 199.498 15.0877 194.123 14.1746C189.976 14.9795 189.976 14.9795 186.75 16.0144C185.534 16.0144 184.317 16.0144 183.064 16.0144C183.482 17.6462 183.9 19.2779 184.331 20.9591C185.008 28.117 183.559 30.576 179.377 36.2531C183.064 34.4132 186.75 32.5734 190.437 30.7335C189.524 32.555 189.524 32.555 188.594 34.4132C195.473 34.7947 199.123 33.7578 205.183 30.7335C210.099 30.4253 210.099 30.4253 214.4 30.7335C214.4 29.5192 214.4 28.3048 214.4 27.0537C212.575 27.0537 210.75 27.0537 208.87 27.0537C208.87 25.8394 208.87 24.6251 208.87 23.374C211.303 22.7668 213.736 22.1596 216.243 21.5341C206.206 22.4448 206.206 22.4448 195.967 23.374C200.831 21.7557 205.47 20.6058 210.483 19.5792C212.814 19.0918 212.814 19.0918 215.192 18.5946C219.927 17.8547 224.362 17.7259 229.146 17.8543C229.146 16.64 229.146 15.4257 229.146 14.1746C232.758 14.6928 236.368 15.2337 239.975 15.7844C241.985 16.0833 243.996 16.3821 246.067 16.69C251.485 17.4175 251.485 17.4175 254.952 21.5341C259.79 21.7641 259.79 21.7641 264.168 21.5341C259.831 16.5218 255.643 14.5164 249.422 12.3347C250.03 11.1203 250.639 9.90603 251.265 8.65491C230.964 -0.801319 218.925 -3.22105 197.81 4.97515Z" fill="#D2DBDE"/>
<path d="M181.22 47.2929C172.105 56.098 172.105 56.098 171.824 62.3138C171.845 63.808 171.867 65.3022 171.889 66.8417C171.906 68.3453 171.922 69.849 171.939 71.3983C171.961 72.5509 171.982 73.7036 172.004 74.8912C173.221 73.6768 174.437 72.4625 175.691 71.2114C178.124 74.2472 180.557 77.283 183.064 80.4108C183.672 79.1965 184.28 77.9822 184.907 76.731C187.34 79.7668 189.773 82.8026 192.28 85.9304C191.672 87.1448 191.064 88.3591 190.437 89.6102C192.262 90.8245 194.087 92.0388 195.967 93.29C195.967 93.8971 195.967 94.5043 195.967 95.1298C198.653 95.2788 201.342 95.3859 204.031 95.4748C205.528 95.5388 207.025 95.6029 208.567 95.6689C209.884 95.491 211.2 95.3131 212.556 95.1298C213.773 93.3084 214.989 91.4869 216.243 89.6102C215.635 88.3959 215.026 87.1815 214.4 85.9304C212.575 85.9304 210.75 85.9304 208.87 85.9304C208.87 87.1448 208.87 88.3591 208.87 89.6102C206.437 89.6102 204.003 89.6102 201.497 89.6102C202.713 88.3959 203.93 87.1816 205.183 85.9304C203.967 84.7541 202.75 83.5777 201.497 82.3657C196.592 74.8694 196.811 68.8994 197.81 60.1721C198.418 58.3506 199.027 56.5291 199.653 54.6525C196.428 53.3875 196.428 53.3875 192.28 52.8126C188.133 55.4574 188.133 55.4574 184.907 58.3322C185.515 56.5107 186.124 54.6893 186.75 52.8126C184.925 52.8126 183.101 52.8126 181.22 52.8126C181.22 50.9911 181.22 49.1696 181.22 47.2929Z" fill="#CDD9DF"/>
<path d="M251.265 71.2114C249.441 71.8186 247.616 72.4257 245.736 73.0513C246.952 76.0871 248.169 79.1229 249.422 82.2507C246.989 81.6436 244.556 81.0364 242.049 80.4108C242.049 81.6252 242.049 82.8395 242.049 84.0906C239.616 84.6978 237.183 85.3049 234.676 85.9305C234.605 87.5954 234.605 87.5954 234.532 89.294C233.973 98.8974 233.973 98.8974 229.146 106.974C227.93 107.923 226.713 108.871 225.46 109.849C224.851 111.063 224.243 112.278 223.616 113.529C219.175 115.823 219.175 115.823 214.4 117.208C213.183 116.601 211.967 115.994 210.713 115.369C210.713 117.19 210.713 119.012 210.713 120.888C212.766 120.85 214.819 120.812 216.934 120.773C223.307 120.403 223.307 120.403 227.303 122.728C237.035 116.364 243.737 110.373 249.408 100.161C251.266 96.6548 251.266 96.6548 254.952 93.29C256.776 85.8692 257.558 81.9657 254.146 75.0062C253.195 73.7539 252.245 72.5016 251.265 71.2114Z" fill="#7E9CB3"/>
<path d="M380.295 89.6101C370.544 88.8123 370.544 88.8123 365.549 89.6101C362.669 93.6348 362.669 93.6348 360.019 98.8095C350.577 107.786 341.641 109.849 328.683 109.849C328.683 108.634 328.683 107.42 328.683 106.169C325.376 105.429 325.376 105.429 322.001 104.674C315.082 102.966 309.143 100.409 302.877 96.9696C301.965 98.7911 301.965 98.7911 301.034 100.649C302.859 102.471 304.684 104.292 306.564 106.169C304.739 106.776 302.914 107.383 301.034 108.009C302.859 108.616 304.684 109.223 306.564 109.849C300.078 109.078 295.4 107.957 289.513 105.019C287.841 104.184 286.168 103.349 284.444 102.489C283.228 103.096 282.011 103.704 280.758 104.329C293.7 113.782 306.042 116.088 321.886 116.058C323.435 116.057 324.983 116.055 326.579 116.053C338.43 115.828 347.71 113.726 358.176 108.009C368.794 102.899 377.881 101.327 389.512 100.649C385.892 97.8792 382.539 95.3297 378.452 93.2898C379.06 92.0755 379.668 90.8612 380.295 89.6101Z" fill="#7E97AE"/>
<path d="M251.265 95.1298C248.031 99.3254 245.188 103.424 242.509 108.009C237.318 114.917 233.299 117.331 225.459 120.888C223.634 120.281 221.809 119.674 219.929 119.048C217.359 118.926 214.783 118.891 212.21 118.933C208.731 118.99 208.731 118.99 205.183 119.048C205.183 118.441 205.183 117.834 205.183 117.208C198.491 116.601 191.8 115.994 184.906 115.368C185.515 117.19 186.123 119.011 186.75 120.888C185.533 120.888 184.317 120.888 183.063 120.888C183.063 122.102 183.063 123.317 183.063 124.568C182.041 124.037 181.02 123.505 179.967 122.958C178.632 122.275 177.296 121.592 175.92 120.888C174.595 120.205 173.269 119.522 171.903 118.818C168.317 117.208 168.317 117.208 164.63 117.208C165.239 119.637 165.847 122.066 166.474 124.568C165.257 124.568 164.04 124.568 162.787 124.568C163.699 127.3 163.699 127.3 164.63 130.088C166.455 130.088 168.28 130.088 170.16 130.088C169.248 133.73 169.248 133.73 168.317 137.447C169.533 136.84 170.75 136.233 172.003 135.607C172.003 134.393 172.003 133.179 172.003 131.927C180.062 127.812 186.773 128.258 195.505 129.168C214.636 130.671 225.361 129.133 240.306 116.756C241.489 115.691 242.672 114.626 243.892 113.529C244.935 112.623 245.978 111.717 247.052 110.783C250.955 106.213 250.716 100.932 251.265 95.1298Z" fill="#88A2B8"/>
<path d="M228.448 54.4725C225.878 54.4848 223.307 54.5068 220.737 54.5372C219.426 54.5455 218.116 54.5538 216.766 54.5623C213.519 54.5841 210.273 54.6171 207.027 54.6522C205.811 57.0808 204.594 59.5094 203.341 62.0117C200.907 62.0117 198.474 62.0117 195.967 62.0117C195.287 75.5985 195.287 75.5985 198.732 81.3304C199.645 82.2412 200.557 83.1519 201.497 84.0902C206.364 83.4831 211.23 82.8759 216.244 82.2504C215.635 78.0002 215.027 73.7501 214.4 69.3712C218.658 69.9784 222.916 70.5855 227.303 71.2111C226.695 69.9968 226.087 68.7824 225.46 67.5313C221.202 67.5313 216.944 67.5313 212.557 67.5313C211.949 66.317 211.34 65.1027 210.714 63.8516C213.672 64.0621 216.629 64.2967 219.584 64.5415C221.231 64.6696 222.878 64.7977 224.574 64.9296C229.596 65.4457 229.596 65.4457 234.676 69.3712C235.943 64.7887 236.52 61.3146 236.52 56.492C234.676 54.6521 234.676 54.6521 228.448 54.4725Z" fill="#8AA5B8"/>
<path d="M183.064 10.4948C169.934 8.73056 162.151 13.1209 150.878 19.6583C145.703 23.7672 144.512 26.413 142.511 32.5734C141.257 33.9015 140.002 35.2297 138.71 36.5981C133.574 44.0394 133.64 51.3143 133.295 60.1716C134.512 60.1716 135.728 60.1716 136.982 60.1716C136.982 62.6002 136.982 65.0289 136.982 67.5311C135.157 68.1383 133.332 68.7454 131.452 69.371C132.06 70.5853 132.668 71.7996 133.295 73.0507C136.336 72.4436 139.378 71.8364 142.511 71.2109C142.671 69.591 142.83 67.9711 142.994 66.3021C144.82 50.02 144.82 50.02 155.414 38.093C158.683 33.9178 161.625 29.5855 164.631 25.2138C160.082 27.3329 157.17 28.9816 153.571 32.5734C154.22 27.5911 154.795 25.6965 158.835 22.5475C166.914 18.2651 173.769 14.8883 183.064 14.1746C183.064 12.9602 183.064 11.7459 183.064 10.4948Z" fill="#B1BABA"/>
<path d="M210.712 63.8517C211.321 65.6732 211.929 67.4947 212.556 69.3713C213.164 69.3713 213.772 69.3713 214.399 69.3713C214.399 71.8 214.399 74.2286 214.399 76.7309C215.615 76.7309 216.832 76.7309 218.085 76.7309C218.085 80.3738 218.085 84.0168 218.085 87.7702C219.302 87.7702 220.519 87.7702 221.772 87.7702C220.403 89.9332 220.403 89.9332 219.007 92.1399C216.242 96.9696 216.242 96.9696 216.242 100.649C223.542 101.56 223.542 101.56 230.988 102.489C237.303 93.0346 237.413 82.2882 236.518 71.2112C230.939 61.0862 220.919 63.1518 210.712 63.8517Z" fill="#D1DADE"/>
<path d="M378.526 103.373C366.193 103.68 357.165 108.361 347.115 115.369C347.115 116.583 347.115 117.797 347.115 119.048C326.433 123.512 306.201 121.618 287.626 111.509C284.444 109.849 284.444 109.849 278.914 108.009C281.114 114.598 283.777 115.754 289.642 119.113C300.397 123.865 310.419 125.229 322.001 125.143C324.071 125.135 324.071 125.135 326.183 125.128C336.497 124.933 345.013 123.2 354.489 119.048C366.633 114.703 380.867 113.092 393.522 116.425C396.884 117.208 396.884 117.208 402.414 115.369C396.788 103.336 391.37 103.497 378.526 103.373Z" fill="#9DB0C3"/>
<path d="M642.041 106.169C632.531 105.98 623.18 106.127 613.709 107.06C599.921 108.251 586.142 108.427 572.313 108.591C569.576 108.629 566.838 108.668 564.101 108.707C556.974 108.807 549.847 108.899 542.72 108.988C535.416 109.081 528.113 109.183 520.809 109.284C506.536 109.481 492.262 109.668 477.989 109.849C477.989 111.063 477.989 112.277 477.989 113.528C485.934 116.172 494.007 116.084 502.311 116.482C508.107 116.792 513.005 117.206 518.541 119.048C519.453 116.316 519.453 116.316 520.384 113.528C521.977 113.547 521.977 113.547 523.602 113.566C534.819 113.689 546.035 113.772 557.252 113.832C561.419 113.859 565.585 113.897 569.752 113.945C594.483 114.224 617.878 113.565 642.041 108.009C642.041 107.402 642.041 106.794 642.041 106.169Z" fill="#B9CBD9"/>
<path d="M168.317 58.3318C163.758 62.8833 162.849 66.9662 160.944 73.0509C159.318 77.3811 159.318 77.3811 153.571 78.5705C154.179 79.7848 154.788 80.9992 155.414 82.2503C152.373 82.2503 149.332 82.2503 146.198 82.2503C146.198 83.4646 146.198 84.6789 146.198 85.93C140.724 84.7157 135.249 83.5014 129.609 82.2503C129.875 83.4266 130.141 84.603 130.415 85.815C131.289 90.5668 132.069 95.2878 132.719 100.074C132.916 101.485 133.113 102.896 133.317 104.35C133.722 108.445 133.722 108.445 129.609 111.688C128.572 115.476 128.572 115.476 127.765 119.853C126.651 125.881 125.762 128.487 122.235 133.767C130.392 130.444 133.022 125.736 137.032 118.171C139.803 110.995 139.545 104.521 138.825 96.9693C138.825 95.755 138.825 94.5407 138.825 93.2896C142.475 93.8967 146.124 94.5039 149.885 95.1294C150.493 92.0936 151.101 89.0578 151.728 85.93C156.182 85.623 156.182 85.623 160.944 85.93C162.161 87.1444 163.377 88.3587 164.631 89.6098C165.847 89.6098 167.064 89.6098 168.317 89.6098C167.709 86.574 167.101 83.5382 166.474 80.4104C168.907 80.4104 171.34 80.4104 173.847 80.4104C173.847 78.5889 173.847 76.7674 173.847 74.8907C172.631 74.2836 171.414 73.6764 170.161 73.0509C169.303 69.5637 169.303 69.5637 169.009 65.5763C168.781 63.1857 168.552 60.795 168.317 58.3318Z" fill="#99B7CA"/>
<path d="M175.691 67.5316C175.082 67.5316 174.474 67.5316 173.847 67.5316C173.847 72.996 173.847 78.4605 173.847 84.0905C175.064 84.0905 176.28 84.0905 177.534 84.0905C177.534 85.3048 177.534 86.5191 177.534 87.7702C179.359 87.7702 181.184 87.7702 183.064 87.7702C183.672 89.5917 184.28 91.4132 184.907 93.2899C186.732 93.2899 188.557 93.2899 190.437 93.2899C190.437 95.1114 190.437 96.9329 190.437 98.8095C192.73 99.793 195.037 100.745 197.349 101.684C198.632 102.218 199.915 102.752 201.237 103.301C205.736 104.473 208.207 103.966 212.556 102.489C212.556 101.275 212.556 100.061 212.556 98.8095C214.381 98.2024 216.206 97.5952 218.086 96.9697C220.275 92.255 220.275 92.255 221.773 87.7702C220.556 87.7702 219.34 87.7702 218.086 87.7702C218.086 84.1273 218.086 80.4843 218.086 76.731C217.478 78.5524 216.87 80.3739 216.243 82.2506C214.228 82.4403 212.213 82.6301 210.137 82.8256C203.606 84.041 201.621 84.4634 197.81 89.6101C202.803 92.1021 207.044 91.5696 212.556 91.45C211.34 90.8428 210.123 90.2357 208.87 89.6101C208.87 88.3958 208.87 87.1815 208.87 85.9304C210.695 85.9304 212.519 85.9304 214.4 85.9304C213.791 88.359 213.183 90.7877 212.556 93.2899C206.259 93.5967 206.259 93.5967 199.653 93.2899C198.437 92.0756 197.22 90.8612 195.967 89.6101C194.142 89.6101 192.317 89.6101 190.437 89.6101C192.262 88.3958 194.087 87.1815 195.967 85.9304C192.317 81.6802 188.667 77.4301 184.907 73.0512C183.69 74.2655 182.474 75.4798 181.22 76.731C180.346 75.2131 179.472 73.6952 178.571 72.1313C177.62 70.6134 176.67 69.0955 175.691 67.5316Z" fill="#BCC7CD"/>
<path d="M242.048 6.81504C243.873 7.4222 245.698 8.02936 247.578 8.65492C246.666 10.4764 246.666 10.4764 245.735 12.3347C247.182 12.9608 248.629 13.587 250.12 14.2321C262.898 20.1164 273.152 25.9573 280.757 38.093C281.054 39.4164 281.351 40.7399 281.657 42.1034C281.969 43.2086 282.28 44.3138 282.6 45.4525C284.425 46.0597 286.25 46.6669 288.13 47.2924C292.431 54.6846 292.458 62.4883 292.847 70.83C293.66 74.8906 293.66 74.8906 299.19 78.5704C303.222 77.8804 303.222 77.8804 306.563 76.7305C303.522 75.5162 300.48 74.3019 297.347 73.0508C297.235 71.8933 297.123 70.7359 297.008 69.5435C296.685 66.2505 296.349 62.9589 296 59.6685C295.704 56.6745 295.452 53.6748 295.295 50.6703C294.438 38.411 289.479 30.0809 280.793 21.685C270.56 13.2059 255.846 2.02484 242.048 6.81504Z" fill="#C0C9CD"/>
<path d="M22.698 120.888C20.8732 121.495 19.0483 122.103 17.1682 122.728C17.1682 129.407 17.1682 136.086 17.1682 142.967C15.3433 142.967 13.5185 142.967 11.6383 142.967C12.5507 135.681 12.5507 135.681 13.4816 128.248C11.6568 128.855 9.8319 129.462 7.95175 130.088C8.56003 135.552 9.16832 141.017 9.79503 146.647C12.2282 147.254 14.6613 147.861 17.1682 148.486C19.0596 151.524 20.8973 154.594 22.698 157.686C30.669 165.045 30.669 165.045 37.4443 165.045C40.5244 165.617 43.5985 166.224 46.6607 166.885C46.6607 168.1 46.6607 169.314 46.6607 170.565C44.2276 169.958 41.7945 169.351 39.2876 168.725C38.6793 171.154 38.071 173.582 37.4443 176.085C40.4046 175.253 43.3607 174.407 46.3151 173.555C48.7851 172.85 48.7851 172.85 51.3049 172.132C55.8771 170.565 55.8771 170.565 61.407 166.885C63.8401 166.885 66.2733 166.885 68.7801 166.885C68.7801 168.1 68.7801 169.314 68.7801 170.565C71.2133 169.351 73.6464 168.136 76.1533 166.885C76.1533 165.671 76.1533 164.457 76.1533 163.206C73.1119 163.813 70.0704 164.42 66.9369 165.045C66.9369 163.831 66.9369 162.617 66.9369 161.366C65.4684 161.562 64 161.759 62.487 161.962C47.3505 163.84 47.3505 163.84 33.7577 157.686C24.8421 148.787 23.8175 132.956 22.698 120.888Z" fill="#BCCEDA"/>
<path d="M61.407 91.4499C59.5821 92.6642 57.7573 93.8785 55.8771 95.1297C49.3582 95.5376 42.9111 95.7148 36.3822 95.6866C25.6846 95.9773 21.0511 98.6134 13.4816 106.169C14.0899 107.383 14.6981 108.598 15.3249 109.849C16.2658 109.206 17.2067 108.563 18.1762 107.901C29.9772 100.529 40.2388 99.0657 54.0338 98.8094C52.9075 99.3573 51.7813 99.9051 50.6209 100.47C46.6607 102.489 46.6607 102.489 42.2829 105.364C36.9196 108.296 32.4217 109.148 26.3846 109.849C28.2094 110.759 28.2094 110.759 30.0711 111.689C29.1587 113.131 28.2463 114.573 27.3062 116.058C23.8063 124.501 23.3404 132.082 24.5413 141.127C25.7578 142.948 26.9744 144.77 28.2278 146.646C28.2968 145.249 28.3657 143.852 28.4367 142.413C28.5578 140.585 28.679 138.756 28.8039 136.872C28.9108 135.058 29.0177 133.243 29.1279 131.374C30.1563 125.959 31.3345 124.233 35.601 120.888C34.3844 120.888 33.1678 120.888 31.9144 120.888C33.3211 119.067 34.7277 117.245 36.177 115.368C36.9683 114.344 37.7595 113.319 38.5747 112.264C41.2136 109.216 41.2136 109.216 46.6607 109.849C46.0524 111.063 45.4441 112.277 44.8174 113.528C47.7737 113.628 50.7309 113.699 53.6882 113.758C55.3349 113.801 56.9815 113.844 58.678 113.888C63.2502 113.528 63.2502 113.528 68.7801 109.849C67.5255 108.824 66.2709 107.8 64.9783 106.744C63.7998 105.34 62.6212 103.936 61.407 102.489C61.8317 97.6049 61.8317 97.6049 63.2502 93.2898C62.642 92.6826 62.0337 92.0755 61.407 91.4499Z" fill="#B2C7D3"/>
<path d="M148.041 104.329C147.432 104.329 146.824 104.329 146.197 104.329C144.373 114.651 142.548 124.972 140.668 135.607C138.234 136.214 135.801 136.821 133.294 137.447C130.069 141.242 130.069 141.242 127.765 144.806C128.981 144.806 130.198 144.806 131.451 144.806C130.235 147.235 129.018 149.664 127.765 152.166C125.379 151.335 122.999 150.489 120.622 149.636C118.633 148.932 118.633 148.932 116.604 148.213C112.684 146.759 112.684 146.759 109.332 142.966C106.567 145.381 106.567 145.381 103.802 148.486C103.802 150.308 103.802 152.129 103.802 154.006C106.197 153.436 106.197 153.436 108.641 152.856C115.631 152.08 119.439 153.314 125.921 155.846C130.348 157.405 132.421 157.903 136.981 156.765C147.332 149.017 149.512 136.706 151.266 124.683C151.612 122.532 151.612 122.532 151.965 120.338C152.523 116.845 153.05 113.347 153.571 109.849C151.746 109.849 149.921 109.849 148.041 109.849C148.041 108.027 148.041 106.206 148.041 104.329Z" fill="#5A88A7"/>
<path d="M114.862 133.767C112.134 134.026 109.408 134.296 106.682 134.572C104.405 134.796 104.405 134.796 102.081 135.025C98.272 135.607 98.272 135.607 96.4287 137.447C92.1372 138.123 87.8356 138.739 83.5257 139.287C83.5257 140.501 83.5257 141.715 83.5258 142.966C82.1571 142.018 80.7885 141.069 79.3784 140.092C74.3093 137.447 74.3093 137.447 70.0467 138.022C69.0203 138.439 67.9938 138.857 66.9362 139.287C67.5445 141.108 68.1528 142.93 68.7795 144.806C71.2126 144.806 73.6457 144.806 76.1526 144.806C76.1526 146.628 76.1526 148.449 76.1526 150.326C81.269 154.602 84.9146 157.568 91.7053 157.915C101.081 153.807 109.537 146.2 114.862 137.447C114.862 136.232 114.862 135.018 114.862 133.767Z" fill="#E9EDF0"/>
<path d="M117.627 124.223C116.106 125.551 114.585 126.879 113.018 128.248C110.601 129.552 108.156 130.813 105.645 131.927C105.645 132.535 105.645 133.142 105.645 133.767C108.687 133.767 111.728 133.767 114.862 133.767C113.037 136.803 111.212 139.839 109.332 142.967C113.457 149.143 114.738 149.553 121.544 151.591C123.05 152.054 124.556 152.516 126.109 152.993C127.263 153.327 128.418 153.661 129.608 154.006C131.451 145.267 131.451 145.267 131.451 141.127C132.934 140.33 134.417 139.533 135.944 138.712C140.668 135.607 140.668 135.607 142.165 130.663C142.336 128.556 142.336 128.556 142.511 126.408C138.94 126.983 138.94 126.983 135.138 128.248C134.529 130.069 133.921 131.891 133.294 133.767C130.253 133.16 127.212 132.553 124.078 131.927C125.903 128.892 127.728 125.856 129.608 122.728C123.952 120.219 122.779 120.494 117.627 124.223Z" fill="#7E9EB3"/>
<path d="M398.727 80.4103C394.58 80.8703 394.58 80.8703 391.354 82.2502C393.787 85.286 396.221 88.3218 398.727 91.4496C393.253 90.2353 387.778 89.021 382.138 87.7699C385.824 91.4496 385.824 91.4496 390.548 93.2895C395.314 94.667 395.314 94.667 396.884 98.8092C399.917 100.712 402.998 102.54 406.101 104.329C407.728 105.519 409.356 106.71 411.033 107.937C417.96 112.178 424.067 114.034 431.907 115.828C433.171 116.146 434.435 116.464 435.737 116.791C443.2 118.582 450.048 119.383 457.713 119.048C457.104 117.834 456.496 116.619 455.869 115.368C451.596 114.552 447.286 113.93 442.966 113.413C434.989 113.116 434.989 113.116 428.22 109.848C429.437 109.241 430.653 108.634 431.907 108.009C431.907 106.794 431.907 105.58 431.907 104.329C430.88 104.215 429.854 104.101 428.796 103.984C422.794 101.879 419.728 97.7995 415.317 93.2895C412.258 91.4278 409.187 89.5865 406.101 87.7699C404.846 86.4038 403.591 85.0376 402.299 83.6301C401.12 82.5676 399.942 81.5051 398.727 80.4103Z" fill="#B8CBD6"/>
<path d="M219.929 16.0147C215.747 16.6852 211.561 17.3361 207.372 17.9696C204.161 18.4569 204.161 18.4569 200.885 18.9542C199.262 19.1985 197.639 19.4428 195.967 19.6944C195.967 20.9088 195.967 22.1231 195.967 23.3742C198.832 23.175 198.832 23.175 201.756 22.9717C204.281 22.7991 206.806 22.6266 209.331 22.4543C211.216 22.3226 211.216 22.3226 213.14 22.1883C219.113 21.7831 224.997 21.5343 230.989 21.5343C229.164 22.7486 227.339 23.963 225.459 25.2141C234.233 32.0104 240.993 33.9236 251.957 34.8735C253.313 35.0158 254.67 35.1581 256.068 35.3047C259.38 35.6481 262.695 35.9546 266.012 36.2534C262.731 28.5592 258.923 26.6976 251.265 23.3742C251.265 22.1599 251.265 20.9456 251.265 19.6944C241.293 11.852 231.622 13.64 219.929 16.0147Z" fill="#F3F5F5"/>
<path d="M61.4934 110.618C50.5674 114.272 41.0234 117.846 33.9882 127.443C31.9145 131.927 31.9145 131.927 31.9145 137.447C33.131 137.447 34.3476 137.447 35.601 137.447C35.601 138.661 35.601 139.876 35.601 141.127C36.5895 140.595 37.578 140.064 38.5964 139.517C43.6245 137.139 48.7365 135.45 54.0339 133.767C53.4256 131.946 52.8173 130.124 52.1906 128.248C53.4072 128.248 54.6237 128.248 55.8772 128.248C55.8772 127.033 55.8772 125.819 55.8772 124.568C57.702 125.175 59.5269 125.782 61.407 126.408C62.0153 124.586 62.6236 122.765 63.2503 120.888C66.9 122.102 70.5497 123.317 74.31 124.568C74.31 123.353 74.31 122.139 74.31 120.888C73.0934 120.888 71.8769 120.888 70.6234 120.888C70.3953 119.408 70.1672 117.928 69.9322 116.403C69.552 114.847 69.1719 113.292 68.7802 111.689C65.0936 109.849 65.0936 109.849 61.4934 110.618Z" fill="#C9D8E0"/>
<path d="M70.6228 111.689C69.4062 112.903 68.1896 114.117 66.9362 115.368C68.761 118.1 68.761 118.1 70.6228 120.888C71.8393 120.888 73.0559 120.888 74.3093 120.888C74.3093 122.102 74.3093 123.317 74.3093 124.568C70.6596 123.353 67.0099 122.139 63.2496 120.888C62.0331 123.924 60.8165 126.96 59.5631 130.087C62.6045 131.302 65.6459 132.516 68.7795 133.767C68.7795 132.553 68.7795 131.338 68.7795 130.087C71.8209 132.516 74.8623 134.945 77.9959 137.447C76.7793 138.054 75.5628 138.661 74.3093 139.287C82.4765 144.948 82.4765 144.948 87.7884 144.231C88.8148 143.814 89.8413 143.397 90.8989 142.966C89.074 142.359 87.2492 141.752 85.369 141.127C93.2767 139.305 101.184 137.484 109.332 135.607C102.431 132.163 100.41 131.486 93.203 131.697C91.7298 131.73 90.2566 131.764 88.7388 131.798C87.6268 131.841 86.5148 131.883 85.369 131.927C84.7608 130.713 84.1525 129.499 83.5258 128.247C84.7423 127.033 85.9589 125.819 87.2123 124.568C85.9958 124.568 84.7792 124.568 83.5258 124.568C83.5258 123.353 83.5258 122.139 83.5258 120.888C87.7837 120.888 92.0417 120.888 96.4287 120.888C96.4287 120.281 96.4287 119.674 96.4287 119.048C90.9542 119.048 85.4796 119.048 79.8392 119.048C79.8392 117.834 79.8392 116.619 79.8392 115.368C76.7978 114.154 73.7563 112.94 70.6228 111.689Z" fill="#C5CCD1"/>
<path d="M278.914 63.8516C280.13 66.2803 281.347 68.7089 282.6 71.2112C284.425 71.2112 286.25 71.2112 288.13 71.2112C287.522 73.6398 286.914 76.0684 286.287 78.5707C292.358 84.1757 298.512 89.6752 304.72 95.1296C306.469 96.6855 308.218 98.2413 310.019 99.8443C318.943 103.942 328.228 103.732 337.899 102.489C341.497 98.8974 343.149 95.9907 345.272 91.4498C344.094 92.019 342.915 92.5883 341.701 93.1747C332.309 96.427 321.693 98.5891 312.093 95.1296C311.485 93.9153 310.876 92.701 310.25 91.4498C312.075 91.4498 313.899 91.4498 315.78 91.4498C315.78 90.2355 315.78 89.0212 315.78 87.7701C320.038 87.7701 324.296 87.7701 328.683 87.7701C328.683 87.1629 328.683 86.5558 328.683 85.9302C327.214 85.7286 325.746 85.527 324.233 85.3193C308.985 83.428 308.985 83.428 295.503 76.7308C293.707 71.0463 293.707 71.0463 293.66 65.6915C291.835 65.6915 290.01 65.6915 288.13 65.6915C282.6 63.8516 282.6 63.8516 278.914 63.8516Z" fill="#C9D2D7"/>
<path d="M306.564 71.2114C307.172 73.0329 307.781 74.8544 308.407 76.7311C307.001 76.7311 305.594 76.7311 304.145 76.7311C300.65 76.7311 297.156 76.7311 293.661 76.7311C300.344 82.5675 307.507 84.88 315.781 87.7704C315.781 88.9847 315.781 90.199 315.781 91.4501C327.768 92.3048 334.983 90.2096 345.273 84.0906C342.933 92.2141 342.933 92.2141 337.9 98.8096C342.393 98.1197 342.393 98.1197 347.116 96.9698C349.945 91.3233 348.13 86.4807 347.116 80.4108C340.729 79.5001 340.729 79.5001 334.213 78.571C334.213 79.7853 334.213 80.9996 334.213 82.2507C328.911 78.8858 328.911 78.8858 325.343 75.6961C319.462 71.8389 313.518 71.2114 306.564 71.2114Z" fill="#D7E1E6"/>
<path d="M160.944 82.2503C160.336 83.4646 159.728 84.6789 159.101 85.9301C156.668 85.9301 154.235 85.9301 151.728 85.9301C151.12 88.9659 150.511 92.0017 149.885 95.1295C145.018 93.9152 140.152 92.7008 135.138 91.4497C135.747 93.2712 136.355 95.0927 136.982 96.9694C138.95 110.697 134.632 120.202 127.765 131.927C129.59 132.534 131.415 133.141 133.295 133.767C134.512 131.945 135.728 130.124 136.982 128.247C138.227 127.797 139.472 127.346 140.755 126.882C144.355 124.568 144.355 124.568 145.881 118.574C146.266 115.052 146.266 115.052 146.659 111.458C146.935 109.101 147.21 106.743 147.494 104.315C147.675 102.498 147.855 100.681 148.041 98.8092C152.908 98.8092 157.774 98.8092 162.788 98.8092C162.788 96.9878 162.788 95.1663 162.788 93.2896C163.396 92.0753 164.004 90.8609 164.631 89.6098C162.903 85.7001 162.903 85.7001 160.944 82.2503Z" fill="#76A0BB"/>
<path d="M295.503 43.613C293.66 49.1327 293.66 49.1327 295.849 54.8823C299.19 60.172 299.19 60.172 302.877 62.1268C306.563 62.0118 306.563 62.0118 309.789 59.367C310.549 58.4183 311.31 57.4696 312.093 56.4922C312.093 57.7065 312.093 58.9208 312.093 60.172C313.136 60.5277 314.179 60.8835 315.254 61.25C316.606 61.7291 317.958 62.2082 319.351 62.7018C320.698 63.1714 322.045 63.641 323.434 64.1248C327.184 65.4206 327.184 65.4206 328.683 69.3714C325.641 69.3714 322.6 69.3714 319.466 69.3714C325.777 75.1662 331.342 75.9246 339.742 76.7309C340.959 73.6951 342.175 70.6593 343.429 67.5315C338.769 62.3822 335.679 59.3298 328.683 58.3321C328.683 56.5106 328.683 54.6891 328.683 52.8124C324.395 52.1121 320.092 51.5012 315.78 50.9726C315.171 51.5797 314.563 52.1869 313.936 52.8124C303.395 50.4548 303.395 50.4548 295.503 43.613Z" fill="#C6D4DE"/>
<path d="M424.533 82.2502C422.709 81.6431 420.884 81.0359 419.004 80.4103C417.787 81.0175 416.57 81.6247 415.317 82.2502C423.029 92.8911 423.029 92.8911 430.178 94.7844C431.965 94.8983 433.752 95.0121 435.593 95.1294C436.629 95.4353 437.665 95.7413 438.732 96.0565C444.845 97.3744 450.915 97.2347 457.136 97.1993C458.407 97.2064 459.677 97.2135 460.985 97.2208C470.382 97.2024 470.382 97.2024 472.459 95.1294C475.559 94.7009 478.673 94.3702 481.79 94.0945C483.485 93.9403 485.179 93.7861 486.924 93.6273C488.888 93.4601 488.888 93.4601 490.892 93.2895C490.892 92.6823 490.892 92.0752 490.892 91.4496C486.976 91.0918 483.059 90.7498 479.141 90.4147C476.959 90.2226 474.778 90.0305 472.531 89.8325C466.929 89.6097 466.929 89.6097 463.242 91.4496C463.242 90.2353 463.242 89.021 463.242 87.7699C461.928 87.7011 460.614 87.6323 459.261 87.5614C447.072 86.7718 447.072 86.7718 435.593 82.9402C430.063 80.4103 430.063 80.4103 424.533 82.2502Z" fill="#95A1A5"/>
<path d="M291.818 80.4104C290.601 81.0175 289.384 81.6247 288.131 82.2503C290.955 85.219 293.801 88.1663 296.656 91.1047C298.239 92.7483 299.821 94.3919 301.452 96.0853C308.476 102.356 314.365 105.988 323.845 106.514C326.24 106.343 326.24 106.343 328.683 106.169C328.683 107.383 328.683 108.597 328.683 109.848C336.88 111.852 340.498 112.241 348.153 108.354C349.203 107.668 350.253 106.983 351.335 106.277C355.799 103.52 360.536 102.113 365.549 100.649C364.332 99.4347 363.116 98.2204 361.862 96.9693C364.296 95.1478 366.729 93.3263 369.236 91.4497C367.126 91.905 367.126 91.905 364.973 92.3696C359.953 93.4578 359.953 93.4578 354.489 93.2895C355.098 92.0752 355.706 90.8609 356.333 89.6098C351.673 91.7562 348.306 93.844 344.351 97.1993C334.898 102.254 326.292 102.053 315.78 100.649C306.122 96.1017 299.116 88.083 291.818 80.4104Z" fill="#6B7F90"/>
<path d="M264.168 21.5346C266.233 27.717 268.541 30.1649 273.385 34.4138C274.601 34.4138 275.818 34.4138 277.071 34.4138C278.733 40.8942 278.733 40.8942 277.878 47.408C276.802 52.1609 278.287 54.27 280.758 58.3323C279.693 57.801 278.629 57.2697 277.532 56.7224C273.692 54.8058 269.852 52.8893 266.012 50.9727C269.924 62.2278 275.627 68.7981 284.444 76.7311C286.269 76.1239 288.094 75.5167 289.974 74.8912C289.366 73.0697 288.758 71.2482 288.131 69.3715C285.692 68.6869 283.233 68.072 280.758 67.5317C280.15 66.3173 279.541 65.103 278.915 63.8519C283.173 65.6734 287.431 67.4949 291.818 69.3715C294.027 59.3461 293.502 54.2446 288.131 45.4531C286.306 45.4531 284.481 45.4531 282.601 45.4531C282.563 43.8972 282.525 42.3414 282.486 40.7384C280.343 32.8943 273.343 21.5346 264.168 21.5346Z" fill="#D7E1E6"/>
<path d="M52.1906 144.807C48.0432 146.876 48.0432 146.876 44.8174 150.326C42.2614 159.943 42.2614 159.943 44.8174 165.045C47.8136 164.786 50.8087 164.516 53.8035 164.24C55.4715 164.091 57.1395 163.941 58.8581 163.788C63.2503 163.205 63.2503 163.205 66.9369 161.365C66.9369 162.58 66.9369 163.794 66.9369 165.045C69.9783 164.438 73.0197 163.831 76.1533 163.205C74.9367 159.562 73.7201 155.919 72.4667 152.166C71.2501 152.166 70.0336 152.166 68.7801 152.166C68.7801 150.952 68.7801 149.737 68.7801 148.486C63.0171 145.077 58.8785 143.972 52.1906 144.807Z" fill="#859DAF"/>
<path d="M113.019 102.489C98.7703 101.778 98.7703 101.778 90.8996 108.008C85.9255 107.6 85.9255 107.6 81.6831 106.169C82.2914 109.204 82.8997 112.24 83.5264 115.368C84.7929 115.479 86.0594 115.591 87.3642 115.706C89.8556 115.937 89.8556 115.937 92.3972 116.173C94.8672 116.397 94.8672 116.397 97.3871 116.626C102.194 117.088 102.194 117.088 107.489 119.048C107.489 120.262 107.489 121.476 107.489 122.728C104.448 123.335 101.406 123.942 98.2727 124.567C98.2727 125.175 98.2727 125.782 98.2727 126.407C101.314 126.407 104.356 126.407 107.489 126.407C107.489 127.622 107.489 128.836 107.489 130.087C113.258 129.47 114.863 128.246 118.894 123.877C122.235 119.048 122.235 119.048 124.079 113.528C122.254 112.921 120.429 112.314 118.549 111.688C118.549 112.903 118.549 114.117 118.549 115.368C116.116 115.975 113.683 116.582 111.176 117.208C110.567 114.172 109.959 111.136 109.332 108.008C110.549 107.401 111.766 106.794 113.019 106.169C113.019 104.954 113.019 103.74 113.019 102.489Z" fill="#CED8DE"/>
<path d="M234.676 98.809C233.239 99.7411 233.239 99.7411 231.774 100.692C229.846 101.923 229.846 101.923 227.879 103.179C226.617 103.99 225.355 104.801 224.055 105.637C211.938 112.603 200.539 113.559 186.75 111.688C179.466 108.721 172.992 105.03 166.474 100.649C165.562 106.113 165.562 106.113 164.631 111.688C166.921 113.242 169.229 114.77 171.543 116.288C172.826 117.142 174.109 117.996 175.431 118.875C179.377 120.888 179.377 120.888 186.75 120.888C187.359 119.673 187.967 118.459 188.594 117.208C192.852 117.815 197.11 118.422 201.497 119.048C201.497 119.655 201.497 120.262 201.497 120.888C204.538 120.888 207.579 120.888 210.713 120.888C210.713 119.066 210.713 117.245 210.713 115.368C211.321 116.582 211.93 117.797 212.556 119.048C223.229 116.765 228.788 111.325 234.676 102.489C234.676 101.274 234.676 100.06 234.676 98.809Z" fill="#6C869B"/>
<path d="M105.645 91.4501C100.691 90.5301 100.691 90.5301 94.5853 91.4501C90.7488 95.9622 88.0326 100.899 85.3688 106.169C89.931 105.258 89.931 105.258 94.5853 104.329C94.5853 103.115 94.5853 101.901 94.5853 100.649C100.668 101.257 106.751 101.864 113.018 102.489C113.018 103.704 113.018 104.918 113.018 106.169C110.585 106.776 108.152 107.383 105.645 108.009C106.862 108.009 108.078 108.009 109.332 108.009C109.332 112.259 109.332 116.509 109.332 120.888C109.94 119.674 110.548 118.46 111.175 117.208C115.44 115.864 119.743 114.63 124.078 113.529C124.758 99.7154 124.758 99.7154 121.313 95.1298C120.4 94.5227 119.488 93.9155 118.548 93.2899C118.548 94.5043 118.548 95.7186 118.548 96.9697C112.801 97.6202 112.801 97.6202 109.332 93.2899C108.115 93.8971 106.898 94.5043 105.645 95.1298C105.645 93.9155 105.645 92.7012 105.645 91.4501Z" fill="#D7E2E8"/>
<path d="M548.841 111.458C546.861 111.448 546.861 111.448 544.841 111.437C536.562 111.452 528.47 111.594 520.385 113.528C519.168 115.957 517.952 118.385 516.698 120.888C531.297 120.888 545.896 120.888 560.937 120.888C560.937 119.673 560.937 118.459 560.937 117.208C562.154 117.208 563.37 117.208 564.624 117.208C564.624 118.422 564.624 119.636 564.624 120.888C570.098 119.977 570.098 119.977 575.683 119.048C575.683 117.833 575.683 116.619 575.683 115.368C576.9 114.761 578.117 114.154 579.37 113.528C569.112 112.074 559.195 111.402 548.841 111.458Z" fill="#627085"/>
<path d="M494.579 91.4495C494.579 93.2709 494.579 95.0924 494.579 96.9691C507.353 96.9691 520.127 96.9691 533.288 96.9691C533.288 99.3977 533.288 101.826 533.288 104.329C536.938 104.936 540.587 105.543 544.348 106.168C544.348 104.954 544.348 103.74 544.348 102.489C549.214 101.882 554.08 101.274 559.094 100.649C558.486 99.4345 557.877 98.2202 557.251 96.9691C552.993 96.9691 548.735 96.9691 544.348 96.9691C544.348 95.7548 544.348 94.5404 544.348 93.2893C527.646 86.3739 511.697 85.3742 494.579 91.4495Z" fill="#829099"/>
<path d="M160.944 89.6099C160.944 95.1296 160.944 95.1296 162.788 98.8093C160.354 99.4165 157.921 100.024 155.414 100.649C160.399 111.844 164.651 118.617 176.115 123.54C179.377 124.568 179.377 124.568 183.064 124.568C183.064 123.353 183.064 122.139 183.064 120.888C177.589 117.852 172.115 114.816 166.474 111.689C167.082 108.653 167.691 105.617 168.317 102.489C169.37 103.286 170.423 104.083 171.507 104.904C182.927 112.733 191.618 114.735 205.399 114.635C211.747 113.313 214.02 111.09 218.086 106.169C216.261 105.562 214.436 104.955 212.556 104.329C212.556 106.15 212.556 107.972 212.556 109.849C210.123 109.849 207.69 109.849 205.183 109.849C205.183 108.634 205.183 107.42 205.183 106.169C202.813 106.361 202.813 106.361 200.395 106.557C185.836 107.54 185.836 107.54 173.502 100.879C171.719 99.0137 169.981 97.102 168.317 95.1296C164.631 91.4498 164.631 91.4498 160.944 89.6099Z" fill="#A8C0D1"/>
<path d="M269.698 96.9697C270.382 101.926 271.089 103.925 274.882 107.319C278.615 109.661 282.33 111.597 286.287 113.529C287.573 114.157 288.858 114.786 290.182 115.433C306.654 123.113 325.093 125.696 342.853 120.888C344.963 119.977 344.963 119.977 347.115 119.048C347.115 117.834 347.115 116.62 347.115 115.369C341.897 113.864 337.491 113.372 332.074 113.608C308.534 114.33 287.379 96.9697 269.698 96.9697Z" fill="#6D8499"/>
<path d="M337.899 52.8121C337.291 54.0265 336.682 55.2408 336.056 56.4919C333.623 55.2776 331.189 54.0633 328.683 52.8121C327.466 54.6336 326.249 56.4551 324.996 58.3318C330.374 61.9105 333.522 62.8446 339.742 63.8514C339.742 65.6729 339.742 67.4944 339.742 69.3711C339.742 71.7997 339.742 74.2283 339.742 76.7306C327.763 73.2565 327.763 73.2565 317.047 67.0712C312.093 63.8514 312.093 63.8514 307.715 64.3114C306.727 64.7668 305.738 65.2221 304.72 65.6913C304.112 68.7271 303.503 71.7629 302.877 74.8907C306.526 76.7122 306.526 76.7122 310.25 78.5705C309.033 76.1418 307.817 73.7132 306.563 71.2109C309.604 71.9877 312.636 72.7992 315.664 73.6258C318.199 74.2982 318.199 74.2982 320.784 74.9841C322.869 75.8486 322.869 75.8486 324.996 76.7306C325.604 78.5521 326.213 80.3735 326.839 82.2502C329.272 82.2502 331.706 82.2502 334.212 82.2502C334.212 81.0359 334.212 79.8216 334.212 78.5705C335.581 79.2156 336.95 79.8607 338.36 80.5253C343.818 82.3827 345.494 82.0291 350.802 80.4103C350.235 78.7774 350.235 78.7774 349.657 77.1115C347.106 69.6437 344.888 62.4188 343.429 54.652C341.586 52.8121 341.586 52.8121 337.899 52.8121Z" fill="#ACBDC7"/>
<path d="M345.273 58.3318C343.035 65.0319 344.042 66.3015 347.001 72.4759C347.702 73.9629 348.403 75.45 349.125 76.9821C349.679 78.1135 350.232 79.2448 350.803 80.4104C349.586 80.4104 348.37 80.4104 347.116 80.4104C347.116 84.6605 347.116 88.9106 347.116 93.2895C348.941 93.2895 350.766 93.2895 352.646 93.2895C354.471 94.5038 356.296 95.7182 358.176 96.9693C361.862 93.6345 361.862 93.6345 365.549 89.6098C365.549 87.7883 365.549 85.9668 365.549 84.0901C367.68 84.1542 367.68 84.1542 369.855 84.2195C371.703 84.2527 373.552 84.2859 375.457 84.3201C377.296 84.3628 379.135 84.4055 381.03 84.4495C385.825 84.0901 385.825 84.0901 389.512 80.4104C383.203 78.3115 378.292 78.3899 371.655 78.4555C368.394 78.4804 368.394 78.4804 365.067 78.5058C363.401 78.5271 361.735 78.5485 360.019 78.5705C358.803 76.1418 357.586 73.7132 356.333 71.211C354.508 71.8181 352.683 72.4253 350.803 73.0508C350.575 71.3052 350.346 69.5597 350.111 67.7612C348.959 62.0116 348.959 62.0116 345.273 58.3318Z" fill="#B8CFDD"/>
<path d="M341.586 39.9333C341.586 41.1476 341.586 42.3619 341.586 43.6131C339.761 43.0059 337.936 42.3987 336.056 41.7732C334.839 42.9875 333.623 44.2018 332.369 45.4529C335.62 46.3068 335.62 46.3068 338.936 47.1778C349.085 50.909 354.428 58.6032 360.018 67.5315C360.627 69.353 361.235 71.1745 361.862 73.0511C367.336 72.444 372.811 71.8368 378.451 71.2113C378.451 69.9969 378.451 68.7826 378.451 67.5315C382.709 68.1387 386.967 68.7458 391.354 69.3714C390.746 68.1571 390.138 66.9427 389.511 65.6916C386.449 65.2986 383.373 65.0107 380.295 64.7717C368.353 62.9093 363.394 57.0734 356.101 47.8678C351.544 42.2568 348.952 39.9333 341.586 39.9333Z" fill="#C6D4DA"/>
<path d="M288.131 27.0537C286.914 27.6608 285.698 28.268 284.444 28.8936C297.384 49.0426 297.384 49.0426 302.877 52.812C308.931 52.4421 313.725 51.0426 319.467 49.1322C328.469 48.1888 335.737 48.1139 344.006 52.0071C349.9 57.3431 353.825 62.7297 358.176 69.3709C358.784 68.1566 359.392 66.9423 360.019 65.6912C353.244 55.9081 347.814 48.4063 336.287 44.1876C324.151 42.4062 315.788 44.4808 304.721 49.1322C304.112 47.9179 303.504 46.7036 302.877 45.4525C304.93 44.6556 304.93 44.6556 307.025 43.8426C311.296 42.0983 315.373 40.2117 319.467 38.093C319.467 36.8786 319.467 35.6643 319.467 34.4132C317.977 34.6527 316.487 34.8923 314.952 35.1391C304.083 37.0144 304.083 37.0144 293.826 34.327C291.03 31.5721 291.03 31.5721 288.131 27.0537Z" fill="#8898A2"/>
<path d="M251.265 106.169C250.504 106.859 249.744 107.549 248.961 108.26C235.374 120.278 222.869 127.478 205.183 131.927C207.007 132.534 208.832 133.141 210.712 133.767C210.712 134.981 210.712 136.196 210.712 137.447C213.671 137.286 216.628 137.087 219.583 136.872C221.23 136.765 222.876 136.658 224.573 136.548C229.811 135.47 231.192 133.968 234.675 130.087C239.479 128.759 239.479 128.759 243.892 128.247C244.5 125.819 245.108 123.39 245.735 120.888C247.56 121.495 249.385 122.102 251.265 122.728C255.614 118.386 255.857 115.775 256.795 109.849C254.97 110.456 253.145 111.063 251.265 111.688C251.265 109.867 251.265 108.046 251.265 106.169Z" fill="#586B7E"/>
<path d="M184.906 21.5347C178.451 25.8302 176.91 29.2653 173.847 36.2537C173.847 37.468 173.847 38.6823 173.847 39.9335C171.515 43.7258 168.997 47.3607 166.466 51.0231C165.86 52.2208 165.255 53.4185 164.63 54.6525C165.239 56.474 165.847 58.2955 166.474 60.1722C166.879 63.3465 167.22 66.5296 167.51 69.7165C167.665 71.3744 167.819 73.0322 167.978 74.7403C168.146 76.6365 168.146 76.6365 168.317 78.571C172.723 74.1731 172.34 73.2539 172.464 67.3017C173.21 58.2678 176.734 53.3738 182.552 46.6102C184.906 43.6132 184.906 43.6132 184.906 39.9335C186.123 39.9335 187.34 39.9335 188.593 39.9335C188.669 38.833 188.745 37.7325 188.823 36.5987C190.21 31.9281 190.21 31.9281 196.081 29.3541C197.868 28.5952 199.655 27.8362 201.496 27.0543C198.241 25.8541 198.241 25.8541 194.123 25.2144C190.58 27.0471 190.58 27.0471 187.211 29.6991C186.079 30.5695 184.948 31.44 183.783 32.3368C182.937 33.0222 182.091 33.7076 181.22 34.4138C182.646 32.2508 182.646 32.2508 184.1 30.0441C184.974 28.4503 185.849 26.8565 186.75 25.2144C186.141 24.0001 185.533 22.7858 184.906 21.5347Z" fill="#BACBD4"/>
<path d="M66.9362 71.2115C62.5755 77.7405 63.0494 79.6316 63.9409 87.1954C64.2474 89.9383 64.2474 89.9383 64.5601 92.7366C64.8238 94.832 64.8238 94.832 65.0929 96.9698C66.3095 96.9698 67.5261 96.9698 68.7795 96.9698C69.3878 101.22 69.9961 105.47 70.6228 109.849C71.8393 109.849 73.0559 109.849 74.3094 109.849C74.3094 111.67 74.3094 113.492 74.3094 115.369C76.1342 115.369 77.9591 115.369 79.8392 115.369C79.8392 116.583 79.8392 117.797 79.8392 119.048C83.41 119.148 86.9816 119.219 90.5533 119.278C92.5421 119.321 94.5309 119.364 96.58 119.408C101.959 119.048 101.959 119.048 107.488 115.369C99.5808 115.369 91.6731 115.369 83.5258 115.369C82.9175 112.94 82.3092 110.511 81.6825 108.009C80.7701 106.358 80.7701 106.358 79.8392 104.674C77.3196 99.1728 76.8432 93.744 76.1526 87.7704C74.3278 87.1632 72.5029 86.5561 70.6228 85.9305C69.1442 82.4828 69.1442 82.4828 68.4339 78.456C68.1416 77.1065 67.8494 75.757 67.5482 74.3666C67.2453 72.8048 67.2453 72.8048 66.9362 71.2115Z" fill="#92A9BA"/>
<path d="M173.847 80.4104C171.414 80.4104 168.98 80.4104 166.474 80.4104C165.091 85.3551 165.091 85.3551 164.63 91.4497C167.626 96.2793 167.626 96.2793 172.003 100.649C173.258 102.053 174.513 103.457 175.805 104.904C184.067 109.641 192.182 108.595 201.496 108.009C201.496 106.794 201.496 105.58 201.496 104.329C192.98 100.686 184.464 97.0429 175.69 93.2895C180.697 94.9554 185.547 96.8308 190.436 98.8092C190.436 96.9877 190.436 95.1662 190.436 93.2895C188.611 92.6824 186.787 92.0752 184.906 91.4497C184.298 90.2353 183.69 89.021 183.063 87.7699C181.238 87.7699 179.413 87.7699 177.533 87.7699C177.533 86.5556 177.533 85.3413 177.533 84.0901C176.317 84.0901 175.1 84.0901 173.847 84.0901C173.847 82.8758 173.847 81.6615 173.847 80.4104Z" fill="#C5D5DF"/>
<path d="M214.399 19.6948C212.574 20.9091 210.749 22.1234 208.869 23.3745C208.869 24.5888 208.869 25.8032 208.869 27.0543C210.694 27.0543 212.519 27.0543 214.399 27.0543C214.399 28.2686 214.399 29.4829 214.399 30.7341C212.992 30.3546 211.586 29.9751 210.136 29.5841C205.183 28.8942 205.183 28.8942 199.653 32.5739C201.478 33.7883 203.302 35.0026 205.183 36.2537C207.007 38.9859 207.007 38.9859 208.869 41.7733C213.477 39.2435 213.477 39.2435 218.086 36.2537C218.086 35.0394 218.086 33.825 218.086 32.5739C219.347 33.1953 220.609 33.8167 221.909 34.4569C228.401 36.6198 233.075 36.2477 239.859 35.5637C242 35.3598 244.141 35.1558 246.347 34.9457C247.97 34.7701 249.593 34.5946 251.265 34.4138C251.265 33.8066 251.265 33.1995 251.265 32.5739C248.984 32.3842 246.703 32.1945 244.352 31.999C237.847 31.2161 233.99 29.8488 229.145 25.2144C229.754 24.0001 230.362 22.7858 230.989 21.5346C225.315 19.8566 220.314 19.2406 214.399 19.6948Z" fill="#EAEAE8"/>
<path d="M258.638 111.689C257.422 115.939 256.205 120.189 254.952 124.568C258.556 126.724 262.167 128.868 265.781 131.007C267.791 132.203 269.802 133.398 271.873 134.63C277.071 137.447 277.071 137.447 280.758 137.447C280.758 135.018 280.758 132.59 280.758 130.087C282.583 130.087 284.408 130.087 286.288 130.087C283.788 122.602 279.647 120.026 273.385 115.368C269.122 113.988 269.122 113.988 266.012 113.528C264.168 111.689 264.168 111.689 258.638 111.689Z" fill="#354874"/>
<path d="M390.088 61.8965C386.826 61.9214 386.826 61.9214 383.499 61.9468C381.834 61.9682 380.168 61.9895 378.452 62.0115C377.844 63.2259 377.235 64.4402 376.609 65.6913C378.7 65.919 380.791 66.1467 382.945 66.3812C386.195 66.9505 386.195 66.9505 389.512 67.5312C390.12 68.7455 390.728 69.9598 391.355 71.2109C395.049 72.9214 395.049 72.9214 399.765 74.6607C406.077 77.0526 412.021 79.6367 417.967 82.8252C424.534 85.93 424.534 85.93 430.064 84.0901C428.239 83.4829 426.414 82.8758 424.534 82.2502C423.262 79.8188 422.038 77.3626 420.847 74.8907C417.859 71.8218 417.859 71.8218 414.511 69.0261C413.411 68.0892 412.311 67.1524 411.177 66.1872C404.441 61.3203 398.109 61.8173 390.088 61.8965Z" fill="#D7DEDF"/>
<path d="M262.325 84.0902C261.717 85.3046 261.108 86.5189 260.482 87.77C263.038 92.8738 266.643 94.0803 271.541 96.9694C273.024 98.2217 274.507 99.4739 276.034 100.764C281.223 104.68 285.606 106.2 291.818 108.009C293.928 109.033 293.928 109.033 296.08 110.079C303.247 112.408 310.151 111.981 317.624 111.688C317.624 111.081 317.624 110.474 317.624 109.849C313.974 109.241 310.324 108.634 306.564 108.009C306.488 106.908 306.412 105.808 306.333 104.674C304.721 100.649 304.721 100.649 299.652 97.3144C293.042 94.9038 291.07 95.6468 284.444 96.9694C277.189 94.1294 274.063 92.4646 269.698 85.9301C265.781 84.6652 265.781 84.6652 262.325 84.0902Z" fill="#7090AB"/>
<path d="M49.6626 96.8692C33.5873 97.8095 21.2574 101.572 8.75752 111.919C6.1078 115.369 6.1078 115.369 4.26451 120.888C11.6331 119.997 16.7118 117.273 23.0286 113.493C30.2416 109.615 38.4152 108.223 46.3144 106.284C52.1899 104.329 52.1899 104.329 55.8765 98.8097C54.0332 96.9698 54.0332 96.9698 49.6626 96.8692Z" fill="#94A7B2"/>
<path d="M133.294 65.6916C132.078 65.6916 130.861 65.6916 129.608 65.6916C129.608 66.9059 129.608 68.1202 129.608 69.3714C126.566 69.9785 123.525 70.5857 120.391 71.2112C124.041 73.0327 124.041 73.0327 127.765 74.891C125.944 74.8483 124.124 74.8056 122.249 74.7616C119.887 74.7284 117.525 74.6952 115.092 74.661C111.563 74.597 111.563 74.597 107.964 74.5316C101.959 74.891 101.959 74.891 98.272 78.5708C97.6638 80.3922 97.0555 82.2137 96.4288 84.0904C110.115 82.2689 110.115 82.2689 124.078 80.4106C124.686 82.8393 125.295 85.2679 125.921 87.7702C126.834 89.8193 127.746 91.8685 128.686 93.9798C131.202 100.048 132.502 105.206 133.294 111.689C133.903 111.689 134.511 111.689 135.138 111.689C136.096 98.7701 133.032 90.4001 127.765 78.5708C138.714 76.7493 138.714 76.7493 149.884 74.891C143.552 70.6774 140.695 70.8829 133.294 71.2112C133.294 69.3898 133.294 67.5683 133.294 65.6916Z" fill="#8AA3B4"/>
<path d="M166.474 45.453C161.011 50.6195 156.438 54.9894 153.571 62.0119C150.764 56.6078 148.408 51.1256 146.198 45.453C142.685 51.3624 142.101 55.6438 142.281 62.4719C142.314 64.1131 142.348 65.7544 142.382 67.4453C142.446 69.3095 142.446 69.3095 142.512 71.2113C149.885 71.2113 149.885 71.2113 153.11 68.4515C153.871 67.5408 154.631 66.63 155.415 65.6917C155.415 69.3347 155.415 72.9776 155.415 76.731C157.848 76.731 160.281 76.731 162.788 76.731C165.563 66.0456 166.877 56.4956 166.474 45.453Z" fill="#B1CADB"/>
<path d="M258.638 38.0934C251.947 38.0934 245.256 38.0934 238.362 38.0934C238.97 39.9148 239.578 41.7363 240.205 43.613C234.73 42.3987 229.256 41.1844 223.615 39.9332C223.615 41.1476 223.615 42.3619 223.615 43.613C226.657 44.2202 229.698 44.8273 232.832 45.4529C231.615 46.06 230.399 46.6672 229.145 47.2928C229.754 49.1142 230.362 50.9357 230.989 52.8124C237.325 55.8022 237.325 55.8022 243.891 58.332C245.716 59.2428 245.716 59.2428 247.578 60.1719C247.578 58.3504 247.578 56.529 247.578 54.6523C251.482 52.1619 251.482 52.1619 256.794 54.6523C260.481 52.8124 260.481 52.8124 262.324 49.1326C259.891 47.9183 257.458 46.704 254.951 45.4529C256.168 43.0242 257.384 40.5956 258.638 38.0934Z" fill="#B4C3CD"/>
<path d="M116.13 43.3828C114.388 43.3781 112.647 43.3733 110.852 43.3684C105.857 43.6029 101.297 44.3378 96.43 45.4527C96.43 46.0598 96.43 46.667 96.43 47.2926C110.116 50.0248 110.116 50.0248 124.079 52.8122C119.213 52.8122 114.347 52.8122 109.333 52.8122C113.808 57.2794 118.404 59.2348 124.079 62.0116C125.752 63.0362 127.425 64.0608 129.148 65.1164C133.296 67.5312 133.296 67.5312 136.982 67.5312C136.982 65.1026 136.982 62.674 136.982 60.1717C135.766 60.1717 134.549 60.1717 133.296 60.1717C133.714 58.7677 134.132 57.3636 134.563 55.917C135.139 50.9723 135.139 50.9723 132.72 47.7525C126.976 43.506 123.2 43.3637 116.13 43.3828Z" fill="#CCD4D5"/>
<path d="M256.795 76.7306C255.813 79.9437 254.858 83.1652 253.915 86.39C253.38 88.183 252.846 89.976 252.295 91.8234C251.279 96.9002 251.38 99.5291 253.109 104.329C253.945 102.849 254.781 101.369 255.643 99.8441C258.173 94.9665 258.173 94.9665 262.325 93.2895C262.933 95.7182 263.542 98.1468 264.168 100.649C261.735 101.256 259.302 101.863 256.795 102.489C257.403 103.703 258.012 104.918 258.638 106.169C259.247 106.169 259.855 106.169 260.482 106.169C260.482 107.99 260.482 109.812 260.482 111.688C264.168 114.793 264.168 114.793 267.855 117.208C269.071 116.601 270.288 115.994 271.541 115.368C270.325 114.154 269.108 112.939 267.855 111.688C271.505 112.296 275.154 112.903 278.915 113.528C276.792 108.987 275.14 106.081 271.541 102.489C270.348 97.7593 270.348 97.7593 269.698 93.2895C267.265 92.6824 264.832 92.0752 262.325 91.4497C261.717 87.8067 261.108 84.1637 260.482 80.4104C263.523 81.0175 266.565 81.6247 269.698 82.2503C265.089 76.7296 264.651 76.7306 256.795 76.7306Z" fill="#5A748D"/>
<path d="M262.325 93.2898C255.956 95.4088 254.755 96.9484 251.265 102.489C250.113 106.284 250.113 106.284 249.422 109.849C248.814 111.67 248.205 113.492 247.579 115.368C251.265 115.368 251.265 115.368 254.952 111.689C254.622 112.889 254.291 114.089 253.951 115.325C251.987 123.382 250.81 128.563 253.224 136.642C256.795 141.127 256.795 141.127 261.749 142.737C263.156 142.813 264.562 142.888 266.012 142.967C265.403 139.324 264.795 135.681 264.168 131.927C265.385 131.32 266.601 130.713 267.855 130.087C259.099 124.568 259.099 124.568 254.952 124.568C255.506 123.282 256.059 121.997 256.63 120.672C257.331 118.998 258.031 117.324 258.754 115.598C259.459 113.933 260.165 112.268 260.892 110.553C262.325 106.169 262.325 106.169 260.482 102.489C264.306 102.215 264.306 102.215 267.855 104.329C266.012 100.649 264.168 96.9696 262.325 93.2898Z" fill="#6F8CAC"/>
<path d="M420.847 109.848C432.599 114.353 443.31 116.325 455.87 117.208C444.921 116.297 444.921 116.297 433.75 115.368C433.142 116.582 432.534 117.797 431.907 119.048C430.691 119.655 429.474 120.262 428.221 120.888C434.846 123.9 439.943 125.012 447.208 124.927C449.008 124.915 450.808 124.903 452.662 124.891C454.519 124.86 456.376 124.829 458.289 124.797C460.182 124.781 462.074 124.764 464.024 124.747C468.68 124.704 473.334 124.643 477.989 124.567C477.989 123.96 477.989 123.353 477.989 122.728C471.906 122.12 465.824 121.513 459.556 120.888C467.768 119.066 467.768 119.066 476.146 117.208C476.146 116.601 476.146 115.994 476.146 115.368C475.022 115.21 473.897 115.053 472.739 114.89C467.615 114.171 462.491 113.447 457.368 112.723C454.714 112.351 454.714 112.351 452.007 111.972C450.29 111.729 448.573 111.486 446.805 111.235C445.231 111.014 443.658 110.792 442.037 110.564C438.845 110.067 435.668 109.469 432.51 108.791C427.94 107.957 425.211 108.397 420.847 109.848Z" fill="#CFDBE2"/>
<path d="M197.809 10.495C197.809 8.67352 197.809 6.85204 197.809 4.97536C195.985 5.58252 194.16 6.18968 192.28 6.81524C192.28 8.63672 192.28 10.4582 192.28 12.3349C199.899 16.4544 203.191 18.2316 211.864 16.5896C213.067 16.2078 214.269 15.8259 215.508 15.4325C224.742 12.8054 234.4 11.8525 243.892 10.495C232.485 -0.890879 210.799 4.73273 197.809 10.495Z" fill="#ACB9BF"/>
<path d="M372.923 87.7698C374.505 88.5346 374.505 88.5346 376.12 89.315C387.382 95.0714 396.154 101.192 403.798 111.343C408.452 116.971 410.67 118.822 417.882 120.514C423.838 120.951 429.629 121.115 435.594 120.888C434.986 119.066 434.378 117.245 433.751 115.368C429.525 113.542 429.525 113.542 424.189 111.918C414.954 108.834 409.57 105.236 402.415 98.809C400.59 98.809 398.766 98.809 396.885 98.809C396.277 96.9876 395.669 95.1661 395.042 93.2894C387.491 89.3758 381.471 86.9941 372.923 87.7698Z" fill="#DEEAEF"/>
<path d="M153.571 96.9697C151.746 97.5769 149.922 98.184 148.041 98.8096C148.041 102.453 148.041 106.096 148.041 109.849C149.866 110.76 149.866 110.76 151.728 111.689C151.462 112.777 151.196 113.866 150.921 114.988C149.132 122.591 147.533 129.578 148.041 137.447C148.326 135.683 148.326 135.683 148.617 133.882C149.036 132.63 149.454 131.378 149.885 130.088C151.709 129.48 153.534 128.873 155.414 128.248C157.603 122.613 157.603 122.613 159.101 117.208C159.101 122.673 159.101 128.137 159.101 133.767C159.709 132.553 160.318 131.339 160.944 130.088C162.161 129.48 163.377 128.873 164.631 128.248C165.847 127.033 167.064 125.819 168.317 124.568C166.914 120.996 165.489 117.433 164.055 113.874C163.264 111.889 162.472 109.903 161.657 107.858C159.371 103.057 157.598 100.329 153.571 96.9697Z" fill="#4E7896"/>
<path d="M94.5855 69.3715C88.3643 71.5533 84.176 73.5586 79.8392 78.5709C79.2309 76.1423 78.6226 73.7136 77.9959 71.2114C76.7793 71.2114 75.5628 71.2114 74.3093 71.2114C71.5477 77.4136 70.6228 80.7869 70.6228 87.7703C72.4476 87.7703 74.2725 87.7703 76.1526 87.7703C76.0766 89.7436 76.0006 91.7168 75.9222 93.7499C76.2573 103.784 76.2573 103.784 79.8392 108.009C85.3833 110.068 88.9676 110.679 94.4919 108.304C97.6722 106.494 100.747 104.502 103.802 102.489C103.802 101.882 103.802 101.275 103.802 100.649C100.76 100.649 97.7191 100.649 94.5855 100.649C94.5855 101.864 94.5855 103.078 94.5855 104.329C92.1523 104.329 89.7192 104.329 87.2123 104.329C88.4289 102.508 89.6455 100.686 90.8989 98.8096C87.3275 97.7747 87.3275 97.7747 83.5258 96.9697C82.9175 97.5769 82.3092 98.184 81.6825 98.8096C81.9009 89.7121 82.062 83.9674 88.134 76.846C89.6547 75.5937 91.1754 74.3415 92.7422 73.0513C93.3505 71.8369 93.9587 70.6226 94.5855 69.3715Z" fill="#ACC3D3"/>
<path d="M181.22 21.5347C169.344 22.0185 163.532 25.9109 155.414 34.4138C150.571 39.7323 148.056 42.9593 148.013 50.2397C148.453 54.8292 149.059 59.317 149.885 63.8519C150.493 63.8519 151.101 63.8519 151.728 63.8519C152.184 62.2581 152.64 60.6643 153.11 59.0222C157.93 46.0321 166.353 36.9611 177.188 28.5492C178.519 27.4487 179.85 26.3482 181.22 25.2144C181.22 24.0001 181.22 22.7858 181.22 21.5347Z" fill="#657F8F"/>
<path d="M116.706 65.6916C103.972 66.5994 93.0532 69.2497 83.6416 78.3408C81.1761 83.2626 80.4593 87.8489 79.8398 93.2898C80.6644 92.5569 81.4889 91.8241 82.3384 91.069C83.4528 90.0942 84.5672 89.1195 85.7153 88.1151C86.806 87.1546 87.8966 86.194 89.0203 85.2044C98.1997 77.9205 104.652 75.9498 116.36 76.3859C117.637 76.4108 118.914 76.4357 120.23 76.4614C123.357 76.5259 126.483 76.6249 129.609 76.7309C127.047 71.6163 123.735 71.4419 118.549 69.3714C117.941 68.157 117.332 66.9427 116.706 65.6916Z" fill="#607C90"/>
<path d="M35.6004 137.447C34.3838 137.447 33.1672 137.447 31.9138 137.447C27.5812 143.934 27.0033 146.371 28.2272 154.006C31.598 158.177 34.6602 160.217 39.2869 163.205C41.1118 162.598 42.9366 161.991 44.8168 161.365C44.8548 159.658 44.8928 157.95 44.932 156.191C45.9752 150.313 45.9752 150.313 49.6554 148.364C52.8944 147.015 56.2274 145.896 59.5631 144.806C59.5631 143.592 59.5631 142.378 59.5631 141.127C55.9134 140.52 52.2637 139.912 48.5034 139.287C41.1302 147.796 41.1302 147.796 41.1302 154.006C39.9137 154.006 38.6971 154.006 37.4437 154.006C38.0519 149.756 38.6602 145.506 39.2869 141.127C38.0704 141.127 36.8538 141.127 35.6004 141.127C35.6004 139.912 35.6004 138.698 35.6004 137.447Z" fill="#B1C5D2"/>
<path d="M378.453 67.5316C378.453 68.746 378.453 69.9603 378.453 71.2114C375.886 71.5529 375.886 71.5529 373.268 71.9014C367.393 73.0513 367.393 73.0513 361.863 76.731C363.533 76.5769 365.204 76.4227 366.925 76.2639C379.75 75.1937 391.534 74.7601 404.259 76.731C404.47 77.8623 404.682 78.9937 404.899 80.1593C406.675 85.9629 410.466 88.0245 415.318 91.4501C417.143 92.3608 417.143 92.3608 419.005 93.29C420.107 93.8592 421.21 94.4284 422.346 95.0148C426.686 97.1193 431.098 98.9042 435.594 100.649C433.137 98.1963 430.679 95.7431 428.221 93.29C426.054 91.07 426.054 91.07 423.843 88.8053C410.925 76.2172 397.434 66.6066 378.453 67.5316Z" fill="#728794"/>
<path d="M533.288 96.9697C530.855 97.5769 528.422 98.184 525.915 98.8096C526.523 100.024 527.131 101.238 527.758 102.489C524.108 102.489 520.459 102.489 516.698 102.489C515.786 104.311 515.786 104.311 514.855 106.169C513.03 107.383 511.205 108.598 509.325 109.849C531.832 109.849 554.338 109.849 577.527 109.849C577.527 108.635 577.527 107.42 577.527 106.169C575.968 106.212 574.409 106.254 572.803 106.298C558.335 106.528 546.986 105.207 533.288 100.649C533.288 99.4351 533.288 98.2208 533.288 96.9697Z" fill="#98B0BE"/>
<path d="M59.5637 74.8907C58.9554 77.9265 58.3472 80.9623 57.7204 84.0901C55.8956 84.0901 54.0707 84.0901 52.1906 84.0901C50.974 87.1259 49.7575 90.1617 48.504 93.2895C38.4673 94.2002 38.4673 94.2002 28.2279 95.1294C28.2279 95.7365 28.2279 96.3437 28.2279 96.9693C33.067 97.0683 37.9041 97.1414 42.7438 97.1992C44.1195 97.2301 45.4953 97.2609 46.9128 97.2927C50.5168 97.3251 54.1213 97.1591 57.7204 96.9693C58.937 95.7549 60.1536 94.5406 61.407 93.2895C62.0153 95.7181 62.6236 98.1468 63.2503 100.649C61.4254 101.256 59.6006 101.863 57.7204 102.489C62.5867 106.739 67.453 110.989 72.4667 115.368C73.075 113.547 73.6833 111.725 74.31 109.848C73.0934 109.848 71.8769 109.848 70.6234 109.848C70.0152 105.598 69.4069 101.348 68.7802 96.9693C67.5636 96.9693 66.347 96.9693 65.0936 96.9693C65.0936 90.2905 65.0936 83.6117 65.0936 76.7306C61.407 74.8907 61.407 74.8907 59.5637 74.8907Z" fill="#8E9FAC"/>
<path d="M203.339 32.5735C200.528 32.738 197.723 33.025 194.929 33.3785C192.645 33.6595 192.645 33.6595 190.314 33.9462C189.138 34.1004 187.962 34.2546 186.75 34.4134C187.358 36.2349 187.966 38.0564 188.593 39.933C187.376 39.933 186.16 39.933 184.906 39.933C182.924 44.8129 181.046 49.6544 179.377 54.6521C189.369 52.1586 197.953 48.4584 207.026 43.6128C205.413 34.6434 205.413 34.6434 203.339 32.5735Z" fill="#EAEFEF"/>
<path d="M498.265 100.649C478.191 100.649 458.118 100.649 437.436 100.649C436.524 103.381 436.524 103.381 435.593 106.169C451.428 112.824 467.305 110.025 483.518 106.169C483.518 105.561 483.518 104.954 483.518 104.329C488.385 103.722 493.251 103.114 498.265 102.489C498.265 101.882 498.265 101.275 498.265 100.649Z" fill="#849AAA"/>
<path d="M192.28 6.81523C185.588 7.42239 178.897 8.02955 172.003 8.65511C172.003 9.26227 172.003 9.86944 172.003 10.495C175.653 10.495 179.303 10.495 183.063 10.495C183.063 11.7093 183.063 12.9236 183.063 14.1748C180.896 13.8332 180.896 13.8332 178.685 13.4848C168.983 14.4867 160.934 18.8333 153.571 25.214C152.109 30.1947 152.109 30.1947 151.727 34.4134C153.609 32.7058 153.609 32.7058 155.529 30.9637C164.034 24.8227 172.628 22.7429 183.063 23.3742C183.063 20.9455 183.063 18.5169 183.063 16.0146C186.105 16.6218 189.146 17.229 192.28 17.8545C193.496 16.033 194.713 14.2116 195.966 12.3349C194.75 12.3349 193.533 12.3349 192.28 12.3349C192.28 10.5134 192.28 8.69191 192.28 6.81523Z" fill="#90999A"/>
<path d="M100.116 78.5704C92.4299 79.4557 86.4886 83.744 81.6831 89.6097C80.0702 96.6243 80.0702 96.6243 79.8398 102.489C81.6647 101.275 83.4895 100.06 85.3697 98.8091C87.1945 98.8091 89.0194 98.8091 90.8995 98.8091C91.5839 97.6328 92.2682 96.4564 92.9732 95.2444C97.7885 89.9573 101.951 90.1927 108.864 89.5738C113.022 89.6097 116.422 90.267 120.392 91.4496C115.034 83.5086 115.034 83.5086 111.176 80.4103C104.148 80.6403 104.148 80.6403 98.2727 82.2502C98.881 81.0359 99.4893 79.8216 100.116 78.5704Z" fill="#9EB8C9"/>
<path d="M313.706 49.1328C312.565 49.7399 311.425 50.3471 310.25 50.9726C312.075 51.8834 312.075 51.8834 313.936 52.8125C313.936 54.0268 313.936 55.2412 313.936 56.4923C316.978 56.4923 320.019 56.4923 323.153 56.4923C320.72 55.8851 318.286 55.278 315.78 54.6524C315.78 53.4381 315.78 52.2238 315.78 50.9726C318.394 51.4967 321.004 52.0364 323.614 52.5825C325.068 52.8814 326.522 53.1802 328.02 53.4881C332.311 54.6368 335.854 56.2133 339.742 58.3322C339.134 56.5107 338.526 54.6892 337.899 52.8125C344.953 59.1121 348.448 63.8651 350.802 73.0512C353.843 73.6584 356.885 74.2655 360.018 74.8911C360.627 72.4624 361.235 70.0338 361.862 67.5316C360.645 67.5316 359.429 67.5316 358.175 67.5316C355.579 64.4162 355.579 64.4162 352.991 60.517C342.62 46.4906 330.372 43.8095 313.706 49.1328Z" fill="#A3BCCE"/>
<path d="M251.265 16.0148C249.44 16.622 247.616 17.2291 245.735 17.8547C248.005 24.6502 249.659 24.9583 255.874 28.089C262.145 30.9476 262.145 30.9476 266.012 36.2535C264.795 36.8607 263.578 37.4678 262.325 38.0934C264.389 39.9442 266.465 41.7816 268.546 43.613C270.278 45.1499 270.278 45.1499 272.045 46.7178C275.228 49.1327 275.228 49.1327 278.915 49.1327C280.067 44.8779 280.067 44.8779 280.758 39.9333C279.541 38.1118 278.325 36.2903 277.071 34.4136C275.855 34.4136 274.638 34.4136 273.385 34.4136C272.89 33.3131 272.396 32.2127 271.887 31.0788C267.236 22.5264 262.34 20.659 253.109 17.8547C252.5 17.2475 251.892 16.6404 251.265 16.0148Z" fill="#E5E9ED"/>
<path d="M328.452 33.8387C326.05 33.7925 326.05 33.7925 323.599 33.7453C322.235 33.9659 320.871 34.1864 319.466 34.4137C318.25 36.2352 317.033 38.0567 315.78 39.9333C309.174 40.3936 309.174 40.3936 302.877 39.9333C304.093 41.1477 305.31 42.362 306.563 43.6131C304.13 44.2203 301.697 44.8274 299.19 45.453C301.623 47.2745 304.056 49.0959 306.563 50.9726C308.236 50.0998 309.909 49.227 311.632 48.3278C321.171 44.1659 331.315 44.1013 341.586 43.6131C341.586 42.3988 341.586 41.1845 341.586 39.9333C342.802 39.3262 344.019 38.719 345.272 38.0935C339.491 34.7252 335.124 33.8686 328.452 33.8387Z" fill="#B8C7CE"/>
<path d="M155.414 65.6916C153.589 66.2988 151.764 66.9059 149.884 67.5315C149.884 68.7458 149.884 69.9601 149.884 71.2112C148.059 71.8184 146.234 72.4256 144.354 73.0511C142.529 73.6583 140.704 74.2654 138.824 74.891C137.57 75.1946 136.315 75.4982 135.023 75.8109C131.451 76.7309 131.451 76.7309 127.765 78.5708C127.765 79.7851 127.765 80.9994 127.765 82.2505C129.589 82.2505 131.414 82.2505 133.294 82.2505C133.903 84.072 134.511 85.8935 135.138 87.7702C135.138 86.5558 135.138 85.3415 135.138 84.0904C136.202 84.7355 137.267 85.3806 138.363 86.0453C143.171 88.0446 145.081 87.6426 149.884 85.9303C149.276 85.3231 148.667 84.716 148.041 84.0904C151.082 84.0904 154.124 84.0904 157.257 84.0904C156.953 83.1038 156.649 82.1171 156.336 81.1006C155.236 75.8866 155.293 71.0052 155.414 65.6916Z" fill="#ABC4D4"/>
<path d="M30.0712 111.689C22.7066 112.739 17.9273 115.185 11.6383 119.048C7.59913 120.328 7.59913 120.328 4.26519 120.888C7.49094 128.017 7.49094 128.017 11.6383 130.087C11.6383 134.337 11.6383 138.588 11.6383 142.966C13.4632 142.966 15.288 142.966 17.1682 142.966C17.2585 141.527 17.3488 140.087 17.4418 138.604C17.5796 136.742 17.7174 134.88 17.8594 132.962C18.0519 130.177 18.0519 130.177 18.2482 127.335C18.5001 125.814 18.752 124.294 19.0115 122.728C20.228 122.121 21.4446 121.513 22.698 120.888C22.698 125.745 22.698 130.602 22.698 135.607C23.3063 135.607 23.9146 135.607 24.5413 135.607C24.7861 134.497 25.0308 133.387 25.283 132.243C25.6085 130.773 25.934 129.302 26.2694 127.787C26.5902 126.336 26.911 124.884 27.2414 123.389C28.1312 119.473 29.0788 115.579 30.0712 111.689Z" fill="#D5E3EB"/>
<path d="M372.921 91.4497C377.195 94.2936 381.228 96.5944 385.824 98.8092C384.639 98.9468 383.453 99.0844 382.231 99.2261C367.32 101.392 354.976 106.771 341.586 113.528C341.586 114.135 341.586 114.743 341.586 115.368C349.44 114.728 353.402 114.274 360.018 109.734C369.902 103.534 383.878 104.717 395.041 106.169C398.637 108.701 398.637 108.701 400.571 111.688C401.787 111.081 403.004 110.474 404.257 109.849C395.124 98.4144 388.623 90.3563 372.921 91.4497Z" fill="#576B7D"/>
<path d="M179.377 25.2139C166.929 33.1661 159.841 42.5041 151.728 54.652C152.419 59.5967 152.419 59.5967 153.571 63.8514C158.542 58.8902 161.217 53.4264 164.631 47.2925C165.239 49.7211 165.847 52.1498 166.474 54.652C168.327 51.6683 170.168 48.677 172.004 45.6826C173.031 44.0176 174.057 42.3527 175.115 40.6373C177.534 36.2532 177.534 36.2532 177.534 32.5734C178.114 30.112 178.724 27.6572 179.377 25.2139Z" fill="#9DBCD0"/>
<path d="M107.488 119.048C99.5808 119.655 91.6731 120.263 83.5258 120.888C82.9175 123.924 82.3092 126.96 81.6825 130.088C85.3691 133.767 85.3691 133.767 89.1636 134.191C90.6107 134.165 92.0577 134.139 93.5486 134.112C95.7121 134.095 95.7121 134.095 97.9192 134.076C101.959 133.767 101.959 133.767 107.488 131.927C107.488 130.106 107.488 128.284 107.488 126.408C105.664 125.801 103.839 125.193 101.959 124.568C103.783 123.961 105.608 123.354 107.488 122.728C107.488 121.514 107.488 120.299 107.488 119.048Z" fill="#EBEDF0"/>
<path d="M105.645 43.6129C92.2664 41.7919 81.6259 47.3452 70.6228 54.6522C63.6472 61.6269 57.9218 69.476 54.0332 78.5707C54.7245 82.7104 54.7245 82.7104 55.8765 85.9302C61.431 83.1581 61.3137 78.8482 63.2496 73.051C66.9616 64.4551 69.5854 60.005 78.1111 55.9171C87.6093 52.2355 97.434 50.5582 107.488 49.1326C106.88 47.3111 106.272 45.4896 105.645 43.6129Z" fill="#B2BBC0"/>
<path d="M236.058 59.9415C234.461 60.9661 234.461 60.9661 232.832 62.0114C233.115 63.3087 233.397 64.6061 233.689 65.9427C234.687 71.2737 235.255 76.5027 235.712 81.9051C235.944 84.5982 235.944 84.5982 236.18 87.3457C236.292 88.7 236.403 90.0542 236.518 91.4495C237.127 89.0209 237.735 86.5922 238.362 84.09C243.836 83.1792 243.836 83.1792 249.421 82.2501C249.117 80.884 248.813 79.5179 248.5 78.1104C247.358 72.701 247.358 72.701 247.578 65.6912C247.578 64.4768 247.578 63.2625 247.578 62.0114C241.226 57.9354 241.226 57.9354 236.058 59.9415Z" fill="#809BB2"/>
<path d="M371.964 74.5384C367.448 74.8863 364.302 74.4163 360.018 73.0507C360.018 74.8722 360.018 76.6937 360.018 78.5704C361.577 78.6818 363.136 78.7933 364.742 78.9082C384.78 79.8935 384.78 79.8935 404.257 84.09C406.485 87.7701 406.485 87.7701 407.944 91.4495C409.769 90.8424 411.594 90.2352 413.474 89.6096C411.706 87.9589 411.706 87.9589 409.902 86.2749C405.726 82.4192 405.726 82.4192 404.257 76.7305C393.915 72.0249 382.913 73.0402 371.964 74.5384Z" fill="#99B2C2"/>
<path d="M295.504 49.1322C293.426 55.3561 293.997 57.9044 295.389 64.1963C295.748 65.8541 296.106 67.5119 296.476 69.22C296.764 70.4841 297.051 71.7483 297.347 73.0507C299.172 73.6578 300.997 74.265 302.877 74.8906C304.094 71.8548 305.31 68.819 306.564 65.6912C310.561 66.6222 313.936 67.5307 317.624 69.3709C321.309 69.4445 324.998 69.4509 328.683 69.3709C326.84 63.8513 326.84 63.8513 322.462 61.6664C317.624 60.1715 317.624 60.1715 312.094 60.1715C312.094 58.9572 312.094 57.7429 312.094 56.4918C310.44 57.4594 310.44 57.4594 308.753 58.4466C304.521 60.7843 304.521 60.7843 299.191 58.3316C296.944 53.7237 296.944 53.7237 295.504 49.1322Z" fill="#D5DEE7"/>
<path d="M76.1533 54.652C69.6509 59.8995 65.0728 65.5294 61.407 73.0508C62.0153 74.2651 62.6236 75.4794 63.2503 76.7306C66.9 71.8733 70.5497 67.016 74.31 62.0115C76.7431 62.6187 79.1762 63.2258 81.6831 63.8514C85.3697 60.1716 85.3697 60.1716 85.3697 54.652C98.7519 54.652 112.134 54.652 125.922 54.652C124.079 50.9722 124.079 50.9722 120.925 49.8511C105.83 47.2798 90.1471 48.2072 76.1533 54.652Z" fill="#72848F"/>
<path d="M52.9968 168.495C48.4038 170.706 44.1396 172.63 39.2874 174.245C39.2874 175.459 39.2874 176.673 39.2874 177.924C40.9981 177.849 42.7089 177.773 44.4716 177.694C50.6385 177.425 50.6385 177.425 55.8769 181.604C57.0935 179.783 58.31 177.961 59.5635 176.085C60.1718 177.906 60.78 179.728 61.4068 181.604C63.2316 182.211 65.0565 182.819 66.9366 183.444C70.6232 177.924 70.6232 177.924 69.932 172.06C69.5518 170.352 69.1716 168.645 68.7799 166.885C62.2703 164.547 59.121 165.496 52.9968 168.495Z" fill="#7F95A8"/>
<path d="M50.3466 108.009C46.3145 107.434 46.3145 107.434 41.1302 108.009C35.0614 112.965 31.1962 116.702 30.0705 124.568C29.4622 125.175 28.8539 125.782 28.2272 126.407C28.0949 129.203 28.0725 132.004 28.112 134.802C28.1287 136.322 28.1453 137.842 28.1624 139.409C28.1838 140.583 28.2052 141.757 28.2272 142.966C31.9138 141.126 31.9138 141.126 33.7571 135.952C34.6695 133.049 34.6695 133.049 35.6004 130.087C38.1551 123.663 40.9317 121.122 46.8905 117.668C48.2259 116.881 49.5612 116.093 50.9371 115.282C51.9588 114.703 52.9805 114.124 54.0332 113.528C51.6001 112.921 49.1669 112.314 46.6601 111.688C47.8766 110.474 49.0932 109.26 50.3466 108.009Z" fill="#A2B8C7"/>
<path d="M118.549 80.4104C113.074 81.3211 113.074 81.3211 107.489 82.2503C109.922 84.0717 112.355 85.8932 114.862 87.7699C114.254 87.7699 113.646 87.7699 113.019 87.7699C110.215 88.0662 107.411 88.3747 104.609 88.6898C103.086 88.8606 101.563 89.0314 99.9936 89.2073C98.8174 89.3401 97.6412 89.4729 96.4294 89.6098C96.4294 90.2169 96.4294 90.8241 96.4294 91.4497C99.4708 91.4497 102.512 91.4497 105.646 91.4497C105.646 92.664 105.646 93.8783 105.646 95.1294C109.908 97.1993 109.908 97.1993 114.862 98.8092C116.687 97.5949 118.512 96.3805 120.392 95.1294C121.609 99.3795 122.825 103.63 124.079 108.009C125.904 107.401 127.728 106.794 129.609 106.169C128.727 96.9336 125.824 91.5451 120.392 84.0901C119.784 82.8758 119.176 81.6615 118.549 80.4104Z" fill="#BACDDA"/>
<path d="M133.295 155.846C131.47 156.453 129.645 157.06 127.765 157.685C127.765 158.9 127.765 160.114 127.765 161.365C120.993 162.935 114.78 163.404 107.835 163.32C106.036 163.304 104.237 163.287 102.384 163.27C101.027 163.248 99.6706 163.227 98.2727 163.205C97.6644 161.991 97.0561 160.776 96.4294 159.525C92.1714 159.525 87.9134 159.525 83.5264 159.525C92.3089 167.495 100.293 169.982 111.982 171.255C120.052 170.407 126.705 168.002 133.295 163.205C133.903 161.384 134.512 159.562 135.138 157.685C134.53 157.078 133.922 156.471 133.295 155.846Z" fill="#425B63"/>
<path d="M59.5637 124.567C58.3471 124.567 57.1306 124.567 55.8771 124.567C55.8771 125.782 55.8771 126.996 55.8771 128.247C54.6606 128.247 53.444 128.247 52.1906 128.247C54.8016 134.545 57.8463 137.124 63.2503 141.126C63.8586 142.948 64.4668 144.769 65.0936 146.646C70.7386 148.831 70.7386 148.831 76.1533 150.326C76.1533 148.504 76.1533 146.683 76.1533 144.806C73.7201 144.199 71.287 143.592 68.7801 142.966C68.7801 141.752 68.7801 140.537 68.7801 139.286C73.0381 139.286 77.2961 139.286 81.6831 139.286C77.5221 134.99 73.7928 131.583 68.7801 128.247C66.9553 128.854 65.1304 129.461 63.2503 130.087C61.1155 128.15 61.1155 128.15 59.5637 124.567Z" fill="#DFE6E8"/>
<path d="M175.691 89.6099C175.691 91.4314 175.691 93.2529 175.691 95.1296C179.911 96.9776 184.136 98.8161 188.363 100.649C189.563 101.176 190.763 101.702 191.999 102.245C201.079 106.169 201.079 106.169 205.183 106.169C205.183 107.383 205.183 108.597 205.183 109.849C207.616 109.849 210.049 109.849 212.556 109.849C212.556 108.027 212.556 106.206 212.556 104.329C213.773 105.543 214.989 106.758 216.243 108.009C218.068 108.919 218.068 108.919 219.929 109.849C222.971 107.42 226.012 104.991 229.146 102.489C223.671 101.275 218.197 100.06 212.556 98.8093C212.556 100.024 212.556 101.238 212.556 102.489C200.931 101.698 184.117 98.0208 175.691 89.6099Z" fill="#A2B1BA"/>
<path d="M345.272 84.0902C343.865 84.6595 342.459 85.2287 341.01 85.8151C333.821 88.652 327.725 90.0133 320.042 90.6448C318.21 90.799 316.378 90.9531 314.491 91.112C312.391 91.2792 312.391 91.2792 310.25 91.4498C310.858 93.2712 311.466 95.0927 312.093 96.9694C329.596 100.203 329.596 100.203 338.014 95.7045C343.429 91.4498 343.429 91.4498 345.157 87.31C345.195 86.2475 345.233 85.185 345.272 84.0902Z" fill="#F1F6F7"/>
<path d="M124.079 80.4104C122.254 81.0175 120.429 81.6247 118.549 82.2503C120.599 86.4998 122.74 90.3747 125.346 94.3245C126.144 95.8044 126.943 97.2844 127.765 98.8092C127.157 100.631 126.549 102.452 125.922 104.329C124.079 109.848 122.235 115.368 120.392 120.888C122.825 121.495 125.258 122.102 127.765 122.728C132.246 112.531 134.434 106.243 131.452 95.1294C129.238 90.0774 126.772 85.2235 124.079 80.4104Z" fill="#A5B9C8"/>
<path d="M419.004 89.6099C417.179 90.2171 415.354 90.8242 413.474 91.4498C417.34 98.9648 420.759 102.268 428.22 106.169C429.665 107.193 431.109 108.218 432.598 109.274C438.761 112.35 443.542 112.088 450.339 111.688C446.244 107.6 442.81 106.305 437.436 104.329C438.045 102.507 438.653 100.686 439.28 98.8093C437.607 98.6196 435.934 98.4299 434.211 98.2344C427.413 96.799 423.835 94.4325 419.004 89.6099Z" fill="#9DB5C7"/>
<path d="M253.109 41.7728C252.5 42.9871 251.892 44.2014 251.265 45.4526C253.698 47.274 256.132 49.0955 258.638 50.9722C256.814 50.9722 254.989 50.9722 253.109 50.9722C251.284 50.9722 249.459 50.9722 247.579 50.9722C247.579 54.9396 248.402 58.1927 249.422 62.0115C250.577 61.8573 251.732 61.7032 252.921 61.5443C254.428 61.357 255.934 61.1696 257.486 60.9766C259.732 60.6884 259.732 60.6884 262.023 60.3944C266.102 59.8361 266.102 59.8361 269.698 62.0115C268.815 54.0744 266.48 50.6673 260.482 45.4526C261.09 44.2382 261.698 43.0239 262.325 41.7728C258.638 39.9329 258.638 39.9329 253.109 41.7728ZM247.579 52.8121C243.892 54.652 243.892 54.652 243.892 54.652L247.579 52.8121Z" fill="#D1DDE6"/>
<path d="M378.797 81.9053C376.542 81.8792 374.287 81.8531 371.964 81.8262C365.868 82.2292 361.789 83.3048 356.332 85.93C362.792 89.9368 367.721 89.8938 375.226 89.6098C385.088 89.4322 393.031 90.3514 402.414 93.2896C394.588 83.135 391.62 81.9723 378.797 81.9053Z" fill="#D4E5ED"/>
<path d="M266.012 111.689C267.684 112.751 269.357 113.814 271.081 114.908C276.187 118.437 280.241 121.889 284.444 126.408C285.661 124.586 286.878 122.765 288.131 120.888C289.621 121.419 291.111 121.95 292.646 122.498C295.6 123.522 295.6 123.522 298.615 124.568C301.534 125.592 301.534 125.592 304.512 126.638C309.852 128.136 313.968 128.573 319.467 128.247C313.576 125.083 307.635 123.017 301.264 121.003C293.418 118.446 286.198 115.603 278.915 111.689C273.139 109.767 271.56 109.97 266.012 111.689Z" fill="#243353"/>
<path d="M501.951 104.329C501.343 105.543 500.735 106.758 500.108 108.009C497.815 107.966 495.522 107.923 493.16 107.879C476.663 107.668 460.931 107.638 444.81 111.688C444.81 112.296 444.81 112.903 444.81 113.528C457.761 114.905 470.494 115.622 483.519 115.368C481.694 114.761 479.869 114.154 477.989 113.528C477.989 112.314 477.989 111.1 477.989 109.849C485.896 109.849 493.804 109.849 501.951 109.848C501.951 108.027 501.951 106.206 501.951 104.329Z" fill="#B1C6D2"/>
<path d="M221.772 43.6132C221.772 45.4347 221.772 47.2562 221.772 49.1328C218.122 50.3472 214.473 51.5615 210.712 52.8126C210.712 53.4198 210.712 54.0269 210.712 54.6525C212.293 54.6999 213.873 54.7474 215.501 54.7962C228.526 55.4412 236.707 56.7753 247.578 63.8519C249.403 63.2447 251.228 62.6376 253.108 62.012C250.462 60.5113 247.811 59.0177 245.159 57.5273C243.683 56.6948 242.208 55.8623 240.687 55.0046C236.518 52.8126 236.518 52.8126 230.989 50.9727C230.38 49.7584 229.772 48.5441 229.145 47.293C232.187 47.293 235.228 47.293 238.362 47.293C232.03 43.0794 229.172 43.2849 221.772 43.6132Z" fill="#5B778B"/>
</svg>
