<svg width="328" height="125" viewBox="0 0 328 125" fill="none" xmlns="http://www.w3.org/2000/svg">
<path d="M256.838 38.7639C260.354 41.2093 260.354 41.2093 262.953 43.6546C260.935 46.8824 258.917 50.1103 256.838 53.4359C256.434 52.629 256.03 51.822 255.614 50.9906C253.596 51.7976 251.578 52.6045 249.499 53.4359C250.71 53.4359 251.921 53.4359 253.168 53.4359C252.765 54.6464 252.361 55.8568 251.945 57.1039C251.239 57.2552 250.533 57.4065 249.805 57.5624C246.7 58.1763 246.7 58.1763 244.072 61.3833C240.761 64.6126 239.357 65.424 234.823 65.6626C233.612 65.2591 232.401 64.8556 231.154 64.4399C227.927 64.9216 227.927 64.9216 225.039 65.6626C226.743 61.8601 228.757 59.1304 231.608 56.101C232.411 55.2451 233.214 54.3893 234.042 53.5076C234.88 52.6265 235.718 51.7455 236.581 50.8378C237.414 49.9473 238.247 49.0568 239.106 48.1393C248.859 37.8068 248.859 37.8068 256.838 38.7639Z" fill="#8AA5B9"/>
<path d="M281.298 21.6463C281.298 22.4532 281.298 23.2602 281.298 24.0916C282.554 24.5455 282.554 24.5455 283.835 25.0086C288.035 26.8024 291.865 29.041 295.745 31.4276C296.476 31.8626 297.206 32.2976 297.959 32.7458C299.789 33.8662 301.557 35.085 303.312 36.3183C303.312 37.1252 303.312 37.9322 303.312 38.7636C300.891 37.9567 298.469 37.1497 295.974 36.3183C295.974 37.9322 295.974 39.5461 295.974 41.209C291.082 41.209 291.082 41.209 288.789 38.9929C287.502 37.669 287.502 37.669 286.19 36.3183C284.929 35.7131 283.667 35.1078 282.368 34.4843C278.674 32.5574 277.733 31.608 276.406 27.7596C273.177 28.1631 269.948 28.5666 266.621 28.9823C266.621 28.1753 266.621 27.3684 266.621 26.5369C262.585 26.1335 258.549 25.73 254.391 25.3143C254.391 26.1717 254.391 27.0291 254.391 27.9124C252.72 32.7146 249.82 34.3158 245.72 37.135C243.246 38.7577 243.246 38.7577 240.938 41.209C239.727 41.209 238.516 41.209 237.269 41.209C238.89 36.4219 240.843 33.4966 244.454 29.9757C245.283 29.1514 246.112 28.3271 246.967 27.4778C252.846 22.454 257.468 22.5857 264.94 22.7925C270.667 22.9209 275.839 21.6463 281.298 21.6463Z" fill="#92A0A7"/>
<path d="M143.095 61.9945C136.717 67.0515 131.342 67.1521 123.416 67.5252C119.837 67.804 119.837 67.804 117.593 69.9801C113.552 72.7417 109.352 72.1135 104.646 71.9287C98.8621 71.7599 93.7451 71.7878 88.0582 72.9985C85.23 71.8523 85.23 71.8523 83.1661 70.5532C83.1661 69.7462 83.1661 68.9393 83.1661 68.1078C82.4093 68.3348 81.6526 68.5618 80.8729 68.7956C78.274 69.3305 78.274 69.3305 75.8279 68.1078C76.6351 66.4939 77.4423 64.88 78.274 63.2172C79.6724 63.2314 81.0708 63.2455 82.5116 63.2602C84.335 63.2716 86.1584 63.2827 87.9818 63.2936C88.9049 63.3038 89.828 63.3141 90.779 63.3246C93.1338 63.3352 95.4886 63.281 97.8425 63.2172C98.2461 62.8137 98.6497 62.4102 99.0656 61.9945C101.305 61.8741 103.549 61.8359 105.792 61.8417C107.016 61.8385 108.239 61.8354 109.5 61.8321C112.519 61.9945 112.519 61.9945 113.742 63.2172C116.689 63.3734 119.585 63.4436 122.533 63.4464C124.139 63.4638 125.746 63.4811 127.401 63.499C133.156 63.1529 137.637 60.1758 143.095 61.9945Z" fill="#B3C6D2"/>
<path d="M294.751 3.30614C294.751 4.51659 294.751 5.72703 294.751 6.97415C293.389 6.57067 292.027 6.16719 290.623 5.75148C282.785 3.78896 274.46 3.66183 266.621 5.75148C268.869 7.99798 272.455 7.76166 275.488 8.19682C283.363 9.33669 283.363 9.33669 287.083 10.1454C290.664 10.7862 293.631 10.0263 297.197 9.41948C299.949 9.9544 299.949 9.9544 302.089 10.6422C302.897 10.6422 303.704 10.6422 304.536 10.6422C304.258 11.7265 303.981 12.8109 303.695 13.9281C303.246 18.6847 304.207 20.3188 306.982 24.0915C304.536 22.8688 302.089 21.6462 299.643 20.4235C300.249 21.6339 300.249 21.6339 300.866 22.8688C296.302 23.1223 293.88 22.4333 289.859 20.4235C286.597 20.2187 286.597 20.2187 283.744 20.4235C283.744 19.6165 283.744 18.8096 283.744 17.9782C284.955 17.9782 286.166 17.9782 287.413 17.9782C287.413 17.1712 287.413 16.3642 287.413 15.5328C285.799 15.1293 284.184 14.7259 282.521 14.3102C289.18 14.9154 289.18 14.9154 295.974 15.5328C292.747 14.4574 289.669 13.6932 286.343 13.0111C284.796 12.6872 284.796 12.6872 283.218 12.3568C280.077 11.8651 277.134 11.7795 273.96 11.8648C273.96 11.0579 273.96 10.2509 273.96 9.41948C271.563 9.76389 269.168 10.1233 266.774 10.4893C265.44 10.6879 264.107 10.8865 262.733 11.0911C259.137 11.5745 259.137 11.5745 256.837 14.3102C253.627 14.463 253.627 14.463 250.722 14.3102C253.599 10.9793 256.378 9.64668 260.506 8.19682C260.103 7.38985 259.699 6.58289 259.283 5.75148C272.753 -0.532528 280.741 -2.14053 294.751 3.30614Z" fill="#D2DBDE"/>
<path d="M305.759 31.4279C311.807 37.2792 311.807 37.2792 311.993 41.4098C311.979 42.4027 311.965 43.3957 311.95 44.4187C311.939 45.4179 311.928 46.4172 311.917 47.4467C311.903 48.2127 311.888 48.9787 311.874 49.7679C311.067 48.9609 310.259 48.154 309.428 47.3225C307.813 49.3399 306.199 51.3573 304.536 53.4359C304.132 52.6289 303.728 51.822 303.313 50.9905C301.698 53.0079 300.084 55.0253 298.42 57.1039C298.824 57.9108 299.228 58.7178 299.643 59.5492C298.433 60.3562 297.222 61.1631 295.974 61.9946C295.974 62.398 295.974 62.8015 295.974 63.2172C294.192 63.3162 292.408 63.3874 290.624 63.4465C289.63 63.489 288.637 63.5316 287.614 63.5754C286.74 63.4572 285.867 63.339 284.967 63.2172C284.16 62.0068 283.353 60.7963 282.521 59.5492C282.925 58.7423 283.328 57.9353 283.744 57.1039C284.955 57.1039 286.166 57.1039 287.413 57.1039C287.413 57.9108 287.413 58.7178 287.413 59.5492C289.028 59.5492 290.642 59.5492 292.305 59.5492C291.498 58.7423 290.691 57.9353 289.859 57.1039C290.666 56.3221 291.474 55.5404 292.305 54.735C295.56 49.7534 295.414 45.7861 294.751 39.9865C294.348 38.7761 293.944 37.5656 293.528 36.3185C295.669 35.4779 295.669 35.4779 298.42 35.0959C301.172 36.8534 301.172 36.8534 303.313 38.7639C302.909 37.5534 302.505 36.343 302.09 35.0959C303.3 35.0959 304.511 35.0959 305.759 35.0959C305.759 33.8854 305.759 32.675 305.759 31.4279Z" fill="#CDD9DF"/>
<path d="M259.283 47.3226C260.494 47.726 261.705 48.1295 262.952 48.5452C262.145 50.5626 261.338 52.58 260.506 54.6586C262.12 54.2551 263.735 53.8516 265.398 53.4359C265.398 54.2429 265.398 55.0498 265.398 55.8812C267.013 56.2847 268.627 56.6882 270.29 57.1039C270.338 58.2103 270.338 58.2103 270.386 59.3391C270.757 65.7209 270.757 65.7209 273.959 71.0882C274.767 71.7186 275.574 72.349 276.406 72.9986C276.809 73.8055 277.213 74.6125 277.629 75.4439C280.575 76.9688 280.575 76.9688 283.744 77.8893C284.551 77.4858 285.358 77.0823 286.19 76.6666C286.19 77.877 286.19 79.0875 286.19 80.3346C284.828 80.3094 283.465 80.2842 282.062 80.2582C277.834 80.012 277.834 80.012 275.182 81.5573C268.725 77.3282 264.278 73.3469 260.516 66.5605C259.282 64.2306 259.282 64.2306 256.837 61.9946C255.627 57.0632 255.108 54.4692 257.372 49.8443C258.003 49.0121 258.633 48.18 259.283 47.3226Z" fill="#7E9CB3"/>
<path d="M173.671 59.5491C180.14 59.019 180.14 59.019 183.455 59.5491C185.366 62.2237 185.366 62.2237 187.124 65.6625C193.389 71.6277 199.318 72.9985 207.916 72.9985C207.916 72.1915 207.916 71.3846 207.916 70.5531C210.11 70.0614 210.11 70.0614 212.349 69.5597C216.94 68.4246 220.881 66.7256 225.038 64.4398C225.644 65.6502 225.644 65.6502 226.261 66.8851C225.05 68.0956 223.84 69.306 222.592 70.5531C223.803 70.9566 225.014 71.3601 226.261 71.7758C225.05 72.1793 223.84 72.5828 222.592 72.9985C226.895 72.4864 229.999 71.7413 233.905 69.789C235.015 69.2342 236.125 68.6794 237.268 68.1078C238.076 68.5113 238.883 68.9148 239.715 69.3305C231.127 75.6121 222.938 77.1449 212.426 77.125C211.398 77.1239 210.37 77.1228 209.312 77.1217C201.449 76.9717 195.291 75.5749 188.347 71.7758C181.302 68.38 175.272 67.3353 167.555 66.8851C169.957 65.0443 172.182 63.35 174.894 61.9945C174.49 61.1875 174.086 60.3805 173.671 59.5491Z" fill="#7E97AE"/>
<path d="M259.284 63.2172C261.429 66.0053 263.315 68.7291 265.093 71.7759C268.537 76.3667 271.204 77.9707 276.406 80.3345C277.617 79.9311 278.828 79.5276 280.075 79.1119C281.781 79.0304 283.49 79.0075 285.197 79.0355C287.505 79.0733 287.505 79.0733 289.86 79.1119C289.86 78.7084 289.86 78.3049 289.86 77.8892C294.299 77.4857 298.739 77.0822 303.313 76.6665C302.909 77.877 302.506 79.0874 302.09 80.3345C302.897 80.3345 303.704 80.3345 304.536 80.3345C304.536 81.1415 304.536 81.9485 304.536 82.7799C305.214 82.4268 305.892 82.0738 306.59 81.71C307.476 81.2561 308.362 80.8022 309.275 80.3345C310.155 79.8806 311.035 79.4267 311.941 78.959C314.32 77.8892 314.32 77.8892 316.766 77.8892C316.363 79.5031 315.959 81.117 315.543 82.7799C316.351 82.7799 317.158 82.7799 317.989 82.7799C317.384 84.5955 317.384 84.5955 316.766 86.4479C315.556 86.4479 314.345 86.4479 313.097 86.4479C313.703 88.8688 313.703 88.8688 314.32 91.3385C313.513 90.9351 312.706 90.5316 311.874 90.1159C311.874 89.3089 311.874 88.502 311.874 87.6705C306.527 84.9356 302.075 85.2323 296.281 85.8365C283.587 86.8355 276.471 85.8137 266.555 77.5883C265.77 76.8806 264.985 76.173 264.176 75.4439C263.484 74.8418 262.792 74.2397 262.079 73.6194C259.489 70.5827 259.648 67.0733 259.284 63.2172Z" fill="#88A2B8"/>
<path d="M274.423 36.1989C276.128 36.2071 277.834 36.2217 279.539 36.2419C280.409 36.2474 281.278 36.2529 282.174 36.2586C284.328 36.2731 286.482 36.295 288.636 36.3183C289.443 37.9322 290.25 39.5462 291.082 41.209C292.696 41.209 294.311 41.209 295.974 41.209C296.426 50.2379 296.426 50.2379 294.139 54.047C293.534 54.6522 292.929 55.2574 292.305 55.881C289.076 55.4775 285.847 55.074 282.521 54.6583C282.924 51.834 283.328 49.0096 283.744 46.0997C280.918 46.5031 278.093 46.9066 275.182 47.3223C275.586 46.5154 275.99 45.7084 276.405 44.877C279.231 44.877 282.056 44.877 284.967 44.877C285.37 44.07 285.774 43.2631 286.19 42.4317C284.227 42.5716 282.265 42.7275 280.304 42.8902C279.211 42.9753 278.119 43.0604 276.993 43.1481C273.661 43.491 273.661 43.491 270.29 46.0997C269.45 43.0544 269.067 40.7458 269.067 37.541C270.29 36.3183 270.29 36.3183 274.423 36.1989Z" fill="#8AA5B8"/>
<path d="M304.536 6.97414C313.247 5.80175 318.412 8.71926 325.891 13.0636C329.325 15.7941 330.115 17.5523 331.442 21.6462C332.275 22.5288 333.107 23.4114 333.965 24.3207C337.373 29.2657 337.329 34.1002 337.558 39.9862C336.75 39.9862 335.943 39.9862 335.112 39.9862C335.112 41.6001 335.112 43.214 335.112 44.8768C336.322 45.2803 337.533 45.6838 338.781 46.0995C338.377 46.9065 337.973 47.7134 337.558 48.5449C335.54 48.1414 333.522 47.7379 331.442 47.3222C331.337 46.2457 331.231 45.1692 331.122 44.0601C329.91 33.2401 329.91 33.2401 322.881 25.3142C320.713 22.5396 318.76 19.6606 316.766 16.7555C319.784 18.1637 321.717 19.2593 324.104 21.6462C323.673 18.3352 323.292 17.0762 320.612 14.9836C315.251 12.1378 310.703 9.89376 304.536 9.41948C304.536 8.61252 304.536 7.80556 304.536 6.97414Z" fill="#B1BABA"/>
<path d="M286.19 42.4318C285.787 43.6422 285.383 44.8526 284.967 46.0998C284.564 46.0998 284.16 46.0998 283.744 46.0998C283.744 47.7137 283.744 49.3276 283.744 50.9904C282.937 50.9904 282.13 50.9904 281.298 50.9904C281.298 53.4113 281.298 55.8322 281.298 58.3264C280.491 58.3264 279.684 58.3264 278.852 58.3264C279.76 59.7638 279.76 59.7638 280.687 61.2303C282.521 64.4398 282.521 64.4398 282.521 66.8851C277.678 67.4903 277.678 67.4903 272.737 68.1078C268.547 61.8249 268.474 54.6835 269.068 47.3224C272.77 40.594 279.418 41.9666 286.19 42.4318Z" fill="#D1DADE"/>
<path d="M174.844 68.6953C183.028 68.8989 189.017 72.0099 195.686 76.6666C195.686 77.4735 195.686 78.2805 195.686 79.1119C209.409 82.0781 222.833 80.8199 235.157 74.1018C237.269 72.9986 237.269 72.9986 240.938 71.7759C239.478 76.1548 237.711 76.9228 233.82 79.1549C226.684 82.3127 220.034 83.219 212.35 83.162C210.976 83.157 210.976 83.157 209.574 83.1518C202.731 83.0225 197.081 81.871 190.794 79.1119C182.736 76.2242 173.291 75.1534 164.895 77.3686C162.664 77.8892 162.664 77.8892 158.995 76.6666C162.727 68.6704 166.323 68.7776 174.844 68.6953Z" fill="#9DB0C3"/>
<path d="M0 70.5531C6.31 70.4275 12.5144 70.5251 18.7982 71.145C27.9467 71.9367 37.0895 72.054 46.2652 72.1626C48.0814 72.1878 49.8976 72.2135 51.7138 72.2396C56.4426 72.3064 61.1715 72.3671 65.9004 72.4265C70.7465 72.4885 75.5925 72.5562 80.4385 72.6235C89.909 72.7541 99.3796 72.8784 108.85 72.9984C108.85 73.8054 108.85 74.6124 108.85 75.4438C103.579 77.2004 98.2219 77.1421 92.7119 77.4067C88.8664 77.6124 85.6167 77.8877 81.9434 79.1118C81.338 77.2961 81.338 77.2961 80.7204 75.4438C79.6634 75.456 79.6634 75.456 78.5852 75.4685C71.1429 75.5506 63.7008 75.6053 56.2582 75.6453C53.4935 75.6635 50.7289 75.6884 47.9644 75.7205C31.5549 75.9059 16.0324 75.468 0 71.7758C0 71.3723 0 70.9688 0 70.5531Z" fill="#B9CBD9"/>
<path d="M314.32 38.7636C317.345 41.7882 317.948 44.5014 319.212 48.5449C320.291 51.4225 320.291 51.4225 324.104 52.2129C323.7 53.0199 323.297 53.8269 322.881 54.6583C324.899 54.6583 326.917 54.6583 328.996 54.6583C328.996 55.4652 328.996 56.2722 328.996 57.1036C332.629 56.2966 336.261 55.4897 340.003 54.6583C339.827 55.44 339.65 56.2218 339.468 57.0272C338.888 60.1849 338.371 63.3222 337.94 66.5029C337.809 67.4406 337.678 68.3784 337.543 69.3446C337.274 72.0655 337.274 72.0655 340.003 74.221C340.691 76.7379 340.691 76.7379 341.227 79.6465C341.966 83.6527 342.556 85.3845 344.896 88.893C339.483 86.6848 337.739 83.5562 335.078 78.529C333.239 73.76 333.411 69.4579 333.888 64.4396C333.888 63.6327 333.888 62.8257 333.888 61.9943C331.467 62.3978 329.045 62.8012 326.55 63.2169C326.146 61.1995 325.743 59.1821 325.327 57.1036C322.372 56.8996 322.372 56.8996 319.212 57.1036C318.405 57.9106 317.597 58.7175 316.766 59.5489C315.959 59.5489 315.151 59.5489 314.32 59.5489C314.723 57.5315 315.127 55.5141 315.543 53.4356C313.928 53.4356 312.314 53.4356 310.651 53.4356C310.651 52.2252 310.651 51.0147 310.651 49.7676C311.458 49.3641 312.265 48.9606 313.097 48.5449C313.666 46.2276 313.666 46.2276 313.861 43.5778C314.012 41.9891 314.164 40.4004 314.32 38.7636Z" fill="#99B7CA"/>
<path d="M309.428 44.8771C309.831 44.8771 310.235 44.8771 310.651 44.8771C310.651 48.5085 310.651 52.1398 310.651 55.8812C309.844 55.8812 309.036 55.8812 308.205 55.8812C308.205 56.6881 308.205 57.4951 308.205 58.3265C306.994 58.3265 305.783 58.3265 304.536 58.3265C304.132 59.5369 303.728 60.7474 303.313 61.9945C302.102 61.9945 300.891 61.9945 299.643 61.9945C299.643 63.2049 299.643 64.4154 299.643 65.6625C298.122 66.316 296.591 66.9488 295.057 67.5729C294.206 67.9275 293.354 68.2822 292.477 68.6475C289.492 69.4263 287.853 69.089 284.967 68.1078C284.967 67.3009 284.967 66.4939 284.967 65.6625C283.756 65.259 282.545 64.8555 281.298 64.4398C279.846 61.3067 279.846 61.3067 278.852 58.3265C279.659 58.3265 280.466 58.3265 281.298 58.3265C281.298 55.9056 281.298 53.4847 281.298 50.9905C281.701 52.2009 282.105 53.4114 282.521 54.6585C283.858 54.7846 285.195 54.9107 286.572 55.0406C290.906 55.8482 292.223 56.129 294.751 59.5492C291.438 61.2051 288.625 60.8513 284.967 60.7718C285.774 60.3683 286.581 59.9649 287.413 59.5492C287.413 58.7422 287.413 57.9352 287.413 57.1038C286.202 57.1038 284.991 57.1038 283.744 57.1038C284.148 58.7177 284.551 60.3317 284.967 61.9945C289.146 62.1984 289.146 62.1984 293.528 61.9945C294.335 61.1875 295.143 60.3806 295.974 59.5492C297.185 59.5492 298.396 59.5492 299.643 59.5492C298.433 58.7422 297.222 57.9352 295.974 57.1038C298.396 54.2795 300.818 51.4551 303.313 48.5451C304.12 49.3521 304.927 50.1591 305.759 50.9905C306.339 49.9818 306.919 48.9731 307.517 47.9338C308.147 46.9251 308.778 45.9164 309.428 44.8771Z" fill="#BCC7CD"/>
<path d="M265.399 4.52882C264.188 4.9323 262.977 5.33578 261.73 5.75149C262.335 6.96193 262.335 6.96193 262.953 8.19683C261.993 8.61292 261.032 9.029 260.043 9.4577C251.565 13.3681 244.761 17.2496 239.715 25.3142C239.518 26.1936 239.321 27.0731 239.118 27.9792C238.911 28.7137 238.705 29.4481 238.492 30.2048C237.281 30.6083 236.07 31.0118 234.823 31.4275C231.97 36.3399 231.951 41.5257 231.694 47.0691C231.154 49.7675 231.154 49.7675 227.485 52.2129C224.809 51.7544 224.809 51.7544 222.593 50.9902C224.611 50.1832 226.629 49.3763 228.708 48.5449C228.782 47.7757 228.856 47.0066 228.932 46.2142C229.147 44.0259 229.37 41.8385 229.601 39.6519C229.798 37.6623 229.965 35.6688 230.069 33.6723C230.637 25.5255 233.928 19.9898 239.691 14.4105C246.481 8.77581 256.244 1.34556 265.399 4.52882Z" fill="#C0C9CD"/>
<path d="M327.774 69.3303C328.177 69.3303 328.581 69.3303 328.997 69.3303C330.207 76.1895 331.418 83.0486 332.666 90.1157C334.28 90.5191 335.895 90.9226 337.558 91.3383C339.698 93.8601 339.698 93.8601 341.227 96.229C340.42 96.229 339.613 96.229 338.781 96.229C339.588 97.8429 340.395 99.4569 341.227 101.12C342.81 100.568 344.389 100.005 345.966 99.4385C347.286 98.9704 347.286 98.9704 348.632 98.4929C351.233 97.5265 351.233 97.5265 353.457 95.0063C355.292 96.6111 355.292 96.6111 357.126 98.6743C357.126 99.8848 357.126 101.095 357.126 102.342C355.537 101.964 355.537 101.964 353.916 101.578C349.278 101.063 346.751 101.883 342.45 103.565C339.513 104.601 338.137 104.932 335.112 104.176C328.244 99.027 326.798 90.8463 325.633 82.8561C325.404 81.427 325.404 81.427 325.17 79.969C324.8 77.6478 324.45 75.3233 324.104 72.9983C325.315 72.9983 326.526 72.9983 327.774 72.9983C327.774 71.7879 327.774 70.5774 327.774 69.3303Z" fill="#5A88A7"/>
<path d="M161.441 53.4356C164.193 53.7413 164.193 53.7413 166.333 54.6583C164.719 56.6757 163.104 58.6931 161.441 60.7716C165.073 59.9646 168.706 59.1577 172.448 58.3263C170.002 60.7716 170.002 60.7716 166.868 61.9943C163.705 62.9097 163.705 62.9097 162.664 65.6623C160.651 66.927 158.607 68.1414 156.549 69.3303C155.469 70.1215 154.389 70.9127 153.276 71.7279C148.68 74.5463 144.628 75.7795 139.426 76.972C138.587 77.1832 137.749 77.3944 136.885 77.6119C131.933 78.8022 127.389 79.334 122.304 79.1116C122.707 78.3047 123.111 77.4977 123.527 76.6663C126.362 76.1243 129.222 75.7109 132.088 75.3672C137.381 75.1697 137.381 75.1697 141.872 72.9983C141.065 72.5948 140.258 72.1913 139.426 71.7756C139.426 70.9687 139.426 70.1617 139.426 69.3303C140.107 69.2546 140.788 69.179 141.49 69.101C145.472 67.7023 147.507 64.9913 150.434 61.9943C152.463 60.7571 154.501 59.5335 156.549 58.3263C157.381 57.4184 158.214 56.5106 159.071 55.5753C159.853 54.8692 160.635 54.1631 161.441 53.4356Z" fill="#B8CBD6"/>
<path d="M280.075 10.6423C282.85 11.0879 285.628 11.5204 288.407 11.9414C290.538 12.2653 290.538 12.2653 292.711 12.5957C293.788 12.7581 294.865 12.9204 295.974 13.0877C295.974 13.8946 295.974 14.7016 295.974 15.533C294.073 15.4006 294.073 15.4006 292.133 15.2655C290.458 15.1508 288.783 15.0362 287.107 14.9217C285.856 14.8342 285.856 14.8342 284.58 14.7449C280.616 14.4756 276.712 14.3103 272.737 14.3103C273.948 15.1173 275.158 15.9242 276.406 16.7557C270.584 21.2721 266.099 22.5434 258.825 23.1747C257.924 23.2692 257.024 23.3638 256.097 23.4612C253.899 23.6895 251.699 23.8931 249.499 24.0917C251.676 18.9786 254.202 17.7415 259.283 15.533C259.283 14.726 259.283 13.9191 259.283 13.0877C265.9 7.87604 272.316 9.06424 280.075 10.6423Z" fill="#F3F5F5"/>
<path d="M240.938 42.4317C240.131 44.0456 239.324 45.6596 238.492 47.3224C237.281 47.3224 236.07 47.3224 234.823 47.3224C235.226 48.9363 235.63 50.5502 236.046 52.2131C232.017 55.9378 227.934 59.5925 223.815 63.2171C222.655 64.251 221.495 65.2849 220.299 66.3502C214.378 69.073 208.218 68.9336 201.801 68.1078C199.413 65.7209 198.317 63.7893 196.909 60.7717C197.691 61.15 198.473 61.5283 199.278 61.918C205.51 64.0792 212.554 65.516 218.923 63.2171C219.327 62.4101 219.731 61.6032 220.146 60.7717C218.936 60.7717 217.725 60.7717 216.477 60.7717C216.477 59.9648 216.477 59.1578 216.477 58.3264C213.652 58.3264 210.827 58.3264 207.916 58.3264C207.916 57.9229 207.916 57.5194 207.916 57.1037C208.89 56.9698 209.865 56.8358 210.868 56.6978C220.985 55.4409 220.985 55.4409 229.931 50.9904C231.123 47.2128 231.123 47.2128 231.154 43.6544C232.365 43.6544 233.575 43.6544 234.823 43.6544C238.492 42.4317 238.492 42.4317 240.938 42.4317Z" fill="#C9D2D7"/>
<path d="M222.592 47.3226C222.188 48.533 221.785 49.7434 221.369 50.9906C222.302 50.9906 223.236 50.9906 224.197 50.9906C226.516 50.9906 228.834 50.9906 231.153 50.9906C226.719 54.8691 221.966 56.4058 216.477 58.3266C216.477 59.1335 216.477 59.9405 216.477 60.7719C208.523 61.3399 203.736 59.9475 196.908 55.8812C198.461 61.2796 198.461 61.2796 201.8 65.6626C198.819 65.2041 198.819 65.2041 195.685 64.4399C193.808 60.6877 195.013 57.4696 195.685 53.4359C199.923 52.8307 199.923 52.8307 204.246 52.2132C204.246 53.0202 204.246 53.8272 204.246 54.6586C207.765 52.4225 207.765 52.4225 210.132 50.3028C214.034 47.7395 217.978 47.3226 222.592 47.3226Z" fill="#D7E1E6"/>
<path d="M319.212 54.6583C319.616 55.4653 320.019 56.2722 320.435 57.1036C322.049 57.1036 323.664 57.1036 325.327 57.1036C325.731 59.121 326.134 61.1384 326.55 63.217C329.779 62.41 333.008 61.6031 336.334 60.7716C335.931 61.9821 335.527 63.1925 335.111 64.4396C333.805 73.5624 336.671 79.8788 341.227 87.6703C340.016 88.0738 338.805 88.4773 337.557 88.893C336.75 87.6826 335.943 86.4721 335.111 85.225C334.285 84.9255 333.459 84.6261 332.608 84.3175C330.219 82.7797 330.219 82.7797 329.206 78.7964C328.951 76.4559 328.951 76.4559 328.69 74.0682C328.508 72.5015 328.325 70.9349 328.136 69.3208C328.016 68.1135 327.897 66.9062 327.773 65.6623C324.544 65.6623 321.316 65.6623 317.989 65.6623C317.989 64.4519 317.989 63.2414 317.989 61.9943C317.585 61.1873 317.182 60.3804 316.766 59.549C317.912 56.9508 317.912 56.9508 319.212 54.6583Z" fill="#76A0BB"/>
<path d="M229.931 28.9824C231.154 32.6504 231.154 32.6504 229.701 36.4713C227.485 39.9864 227.485 39.9864 225.039 41.2855C222.593 41.2091 222.593 41.2091 220.452 39.4515C219.948 38.8211 219.443 38.1906 218.923 37.5411C218.923 38.3481 218.923 39.155 218.923 39.9864C218.231 40.2229 217.539 40.4593 216.826 40.7028C215.929 41.0212 215.032 41.3396 214.108 41.6676C213.214 41.9797 212.32 42.2917 211.399 42.6133C208.911 43.4744 208.911 43.4744 207.916 46.0998C209.934 46.0998 211.952 46.0998 214.031 46.0998C209.844 49.9507 206.152 50.4547 200.578 50.9905C199.771 48.9731 198.964 46.9556 198.132 44.8771C201.224 41.4552 203.274 39.4268 207.916 38.7638C207.916 37.5533 207.916 36.3429 207.916 35.0958C210.761 34.6304 213.616 34.2244 216.477 33.8731C216.881 34.2766 217.285 34.6801 217.7 35.0958C224.695 33.5291 224.695 33.5291 229.931 28.9824Z" fill="#C6D4DE"/>
<path d="M144.318 54.6583C145.529 54.2548 146.74 53.8513 147.987 53.4356C148.795 53.8391 149.602 54.2426 150.434 54.6583C145.317 61.7295 145.317 61.7295 140.573 62.9877C139.387 63.0633 138.202 63.139 136.98 63.2169C136.293 63.4203 135.605 63.6236 134.897 63.8331C130.841 64.7088 126.814 64.616 122.686 64.5924C121.843 64.5972 121.001 64.6019 120.132 64.6068C113.897 64.5945 113.897 64.5945 112.519 63.2169C110.462 62.9322 108.396 62.7124 106.328 62.5292C105.204 62.4267 104.08 62.3243 102.921 62.2188C101.618 62.1076 101.618 62.1076 100.289 61.9943C100.289 61.5908 100.289 61.1873 100.289 60.7716C102.887 60.5338 105.486 60.3065 108.086 60.0839C109.533 59.9562 110.98 59.8285 112.472 59.697C116.189 59.5489 116.189 59.5489 118.635 60.7716C118.635 59.9646 118.635 59.1577 118.635 58.3263C119.506 58.2806 120.378 58.2349 121.277 58.1878C129.364 57.663 129.364 57.663 136.98 55.1168C140.649 53.4356 140.649 53.4356 144.318 54.6583Z" fill="#95A1A5"/>
<path d="M232.376 53.4356C233.184 53.8391 233.991 54.2426 234.822 54.6583C232.949 56.6311 231.06 58.5897 229.166 60.5424C228.116 61.6346 227.066 62.7268 225.984 63.8522C221.323 68.0193 217.416 70.4329 211.126 70.7822C209.537 70.6687 209.537 70.6687 207.916 70.553C207.916 71.3599 207.916 72.1669 207.916 72.9983C202.477 74.3298 200.076 74.5882 194.997 72.0049C194.3 71.5494 193.604 71.0939 192.886 70.6246C189.924 68.7926 186.781 67.8581 183.455 66.8849C184.262 66.078 185.069 65.271 185.901 64.4396C184.287 63.2292 182.672 62.0187 181.009 60.7716C182.409 61.0742 182.409 61.0742 183.837 61.3829C187.168 62.1061 187.168 62.1061 190.793 61.9943C190.389 61.1873 189.986 60.3804 189.57 59.5489C192.661 60.9753 194.896 62.3627 197.52 64.5924C203.792 67.9517 209.502 67.8178 216.477 66.8849C222.885 63.8631 227.534 58.5343 232.376 53.4356Z" fill="#6B7F90"/>
<path d="M250.722 14.3105C249.352 18.4189 247.821 20.0456 244.607 22.8692C243.8 22.8692 242.992 22.8692 242.161 22.8692C241.058 27.1756 241.058 27.1756 241.626 31.5043C242.339 34.6628 241.354 36.0644 239.715 38.7639C240.421 38.4108 241.127 38.0578 241.855 37.6941C244.403 36.4204 246.951 35.1468 249.499 33.8732C246.903 41.3526 243.119 45.7188 237.269 50.9906C236.058 50.5871 234.847 50.1836 233.599 49.7679C234.003 48.5575 234.407 47.347 234.822 46.0999C236.441 45.6449 238.073 45.2363 239.715 44.8772C240.118 44.0703 240.522 43.2633 240.938 42.4319C238.112 43.6423 235.287 44.8528 232.376 46.0999C230.91 39.4377 231.259 36.0475 234.822 30.2052C236.033 30.2052 237.244 30.2052 238.492 30.2052C238.517 29.1713 238.542 28.1374 238.568 27.0721C239.99 21.8595 244.635 14.3105 250.722 14.3105Z" fill="#D7E1E6"/>
<path d="M270.291 65.6622C271.244 66.2816 271.244 66.2816 272.216 66.9135C273.495 67.7315 273.495 67.7315 274.8 68.566C275.638 69.105 276.475 69.6441 277.337 70.1994C285.377 74.8285 292.941 75.4638 302.089 74.2209C306.923 72.2492 311.218 69.796 315.543 66.8848C316.148 70.5162 316.148 70.5162 316.766 74.2209C315.246 75.2533 313.715 76.269 312.18 77.2775C311.328 77.8449 310.477 78.4123 309.6 78.9969C306.982 80.3342 306.982 80.3342 302.089 80.3342C301.686 79.5272 301.282 78.7203 300.866 77.8889C298.041 78.2923 295.216 78.6958 292.305 79.1115C292.305 79.515 292.305 79.9185 292.305 80.3342C290.287 80.3342 288.269 80.3342 286.19 80.3342C286.19 79.1238 286.19 77.9133 286.19 76.6662C285.786 77.4731 285.383 78.2801 284.967 79.1115C277.886 77.5945 274.197 73.9795 270.291 68.1075C270.291 67.3006 270.291 66.4936 270.291 65.6622Z" fill="#6C869B"/>
<path d="M61.8393 74.068C63.153 74.061 63.153 74.061 64.4932 74.0537C69.9864 74.0637 75.3553 74.1586 80.7199 75.4435C81.5271 77.0575 82.3343 78.6714 83.166 80.3342C73.4795 80.3342 63.7931 80.3342 53.8131 80.3342C53.8131 79.5273 53.8131 78.7203 53.8131 77.8889C53.0059 77.8889 52.1987 77.8889 51.3671 77.8889C51.3671 78.6958 51.3671 79.5028 51.3671 80.3342C47.7346 79.729 47.7346 79.729 44.0288 79.1116C44.0288 78.3046 44.0288 77.4976 44.0288 76.6662C43.2216 76.2627 42.4144 75.8593 41.5828 75.4435C48.3893 74.477 54.9689 74.0308 61.8393 74.068Z" fill="#627085"/>
<path d="M97.8424 60.7715C97.8424 61.9819 97.8424 63.1924 97.8424 64.4395C89.3667 64.4395 80.8911 64.4395 72.1586 64.4395C72.1586 66.0534 72.1586 67.6673 72.1586 69.3302C69.737 69.7336 67.3154 70.1371 64.8204 70.5528C64.8204 69.7459 64.8204 68.9389 64.8204 68.1075C61.5916 67.704 58.3628 67.3005 55.0361 66.8848C55.4397 66.0779 55.8433 65.2709 56.2592 64.4395C59.0844 64.4395 61.9096 64.4395 64.8204 64.4395C64.8204 63.6325 64.8204 62.8256 64.8204 61.9942C75.9024 57.3986 86.4843 56.7343 97.8424 60.7715Z" fill="#829099"/>
<path d="M319.212 59.549C319.212 63.2171 319.212 63.2171 317.989 65.6624C319.603 66.0659 321.218 66.4693 322.881 66.8851C319.574 74.3241 316.753 78.8252 309.146 82.0968C306.982 82.7797 306.982 82.7797 304.536 82.7797C304.536 81.9728 304.536 81.1658 304.536 80.3344C308.168 78.317 311.8 76.2996 315.543 74.2211C315.139 72.2037 314.736 70.1863 314.32 68.1077C313.621 68.6373 312.923 69.1669 312.203 69.7125C304.626 74.9148 298.86 76.2453 289.716 76.1792C285.504 75.3006 283.996 73.8233 281.298 70.5531C282.509 70.1496 283.719 69.7461 284.967 69.3304C284.967 70.5408 284.967 71.7513 284.967 72.9984C286.581 72.9984 288.196 72.9984 289.859 72.9984C289.859 72.1914 289.859 71.3845 289.859 70.5531C291.432 70.6807 291.432 70.6807 293.036 70.811C302.696 71.4645 302.696 71.4645 310.88 67.0379C312.063 65.7982 313.216 64.5278 314.32 63.2171C316.766 60.7717 316.766 60.7717 319.212 59.549Z" fill="#A8C0D1"/>
<path d="M247.053 64.4399C246.599 67.7336 246.13 69.0619 243.614 71.3174C241.137 72.8738 238.672 74.1603 236.046 75.4439C235.193 75.8616 234.34 76.2792 233.461 76.7096C222.533 81.8133 210.298 83.5293 198.514 80.3346C197.114 79.7294 197.114 79.7294 195.686 79.1119C195.686 78.305 195.686 77.498 195.686 76.6666C199.148 75.6666 202.072 75.34 205.666 75.4965C221.285 75.9766 235.322 64.4399 247.053 64.4399Z" fill="#6D8499"/>
<path d="M201.801 35.0956C202.205 35.9025 202.608 36.7095 203.024 37.5409C204.638 36.7339 206.253 35.927 207.916 35.0956C208.723 36.306 209.531 37.5164 210.362 38.7636C206.794 41.1418 204.705 41.7625 200.578 42.4316C200.578 43.642 200.578 44.8524 200.578 46.0996C200.578 47.7135 200.578 49.3274 200.578 50.9902C208.526 48.6816 208.526 48.6816 215.637 44.5712C218.924 42.4316 218.924 42.4316 221.828 42.7372C222.484 43.0398 223.14 43.3425 223.816 43.6542C224.219 45.6716 224.623 47.689 225.039 49.7676C222.617 50.978 222.617 50.978 220.147 52.2129C220.954 50.599 221.761 48.9851 222.593 47.3222C220.575 47.8384 218.563 48.3777 216.554 48.927C214.872 49.3738 214.872 49.3738 213.157 49.8297C211.774 50.4041 211.774 50.4041 210.362 50.9902C209.959 52.2007 209.555 53.4111 209.139 54.6582C207.525 54.6582 205.91 54.6582 204.247 54.6582C204.247 53.8513 204.247 53.0443 204.247 52.2129C203.339 52.6416 202.431 53.0703 201.495 53.512C197.874 54.7463 196.761 54.5113 193.24 53.4356C193.616 52.3504 193.616 52.3504 193.999 51.2434C195.692 46.2807 197.164 41.4796 198.132 36.3182C199.355 35.0956 199.355 35.0956 201.801 35.0956Z" fill="#ACBDC7"/>
<path d="M196.908 38.7636C198.393 43.2161 197.725 44.0598 195.762 48.1628C195.297 49.1511 194.832 50.1393 194.352 51.1574C193.985 51.9092 193.618 52.661 193.239 53.4356C194.046 53.4356 194.854 53.4356 195.685 53.4356C195.685 56.26 195.685 59.0843 195.685 61.9943C194.474 61.9943 193.264 61.9943 192.016 61.9943C190.805 62.8012 189.595 63.6082 188.347 64.4396C185.901 62.2235 185.901 62.2235 183.455 59.5489C183.455 58.3385 183.455 57.1281 183.455 55.8809C182.041 55.9235 182.041 55.9235 180.598 55.9669C179.371 55.989 178.145 56.011 176.881 56.0338C175.661 56.0621 174.441 56.0905 173.183 56.1197C170.001 55.8809 170.001 55.8809 167.555 53.4356C171.741 52.0408 175 52.0929 179.404 52.1365C181.567 52.1531 181.567 52.1531 183.775 52.17C184.88 52.1841 185.985 52.1983 187.124 52.2129C187.931 50.599 188.738 48.9851 189.57 47.3223C190.781 47.7257 191.992 48.1292 193.239 48.5449C193.391 47.3849 193.542 46.2249 193.698 45.0298C194.462 41.2089 194.462 41.2089 196.908 38.7636Z" fill="#B8CFDD"/>
<path d="M199.355 26.5371C199.355 27.3441 199.355 28.151 199.355 28.9825C200.566 28.579 201.777 28.1755 203.024 27.7598C203.831 28.5667 204.638 29.3737 205.47 30.2051C203.313 30.7725 203.313 30.7725 201.113 31.3514C194.379 33.8309 190.834 38.944 187.125 44.8771C186.721 46.0876 186.317 47.298 185.902 48.5451C182.269 48.1417 178.637 47.7382 174.894 47.3225C174.894 46.5155 174.894 45.7085 174.894 44.8771C172.069 45.2806 169.244 45.6841 166.333 46.0998C166.737 45.2928 167.14 44.4859 167.556 43.6545C169.588 43.3933 171.629 43.2019 173.671 43.0431C181.594 41.8055 184.885 37.9273 189.724 31.8099C192.748 28.0812 194.468 26.5371 199.355 26.5371Z" fill="#C6D4DA"/>
<path d="M234.822 17.9781C235.63 18.3816 236.437 18.7851 237.268 19.2008C228.683 32.5906 228.683 32.5906 225.038 35.0955C221.022 34.8497 217.84 33.9197 214.031 32.6501C208.058 32.0232 203.236 31.9734 197.749 34.5606C193.838 38.1065 191.234 41.6862 188.347 46.0995C187.943 45.2925 187.54 44.4856 187.124 43.6542C191.619 37.153 195.222 32.1677 202.871 29.3642C210.923 28.1805 216.472 29.5591 223.815 32.6501C224.219 31.8432 224.622 31.0362 225.038 30.2048C223.676 29.6752 223.676 29.6752 222.286 29.135C219.452 27.9759 216.747 26.7221 214.031 25.3141C214.031 24.5072 214.031 23.7002 214.031 22.8688C215.019 23.028 216.008 23.1872 217.026 23.3512C224.238 24.5974 224.238 24.5974 231.043 22.8115C232.899 20.9808 232.899 20.9808 234.822 17.9781Z" fill="#8898A2"/>
<path d="M259.284 70.553C259.788 71.0117 260.293 71.4703 260.812 71.9429C269.827 79.929 278.125 84.7135 289.86 87.6704C288.649 88.0739 287.438 88.4773 286.19 88.893C286.19 89.7 286.19 90.507 286.19 91.3384C284.227 91.2316 282.265 91.0993 280.305 90.9563C279.212 90.8854 278.119 90.8145 276.994 90.7414C273.518 90.0247 272.602 89.0264 270.291 86.4477C267.104 85.565 267.104 85.565 264.176 85.225C263.772 83.6111 263.369 81.9972 262.953 80.3344C261.742 80.7379 260.531 81.1413 259.284 81.557C256.398 78.6721 256.237 76.9366 255.615 72.9984C256.825 73.4018 258.036 73.8053 259.284 74.221C259.284 73.0106 259.284 71.8002 259.284 70.553Z" fill="#586B7E"/>
<path d="M303.313 14.3105C307.596 17.1651 308.619 19.4478 310.651 24.0919C310.651 24.8988 310.651 25.7058 310.651 26.5372C312.198 29.0574 313.869 31.4729 315.548 33.9067C315.95 34.7026 316.352 35.4985 316.766 36.3186C316.363 37.529 315.959 38.7394 315.543 39.9866C315.274 42.0961 315.048 44.2113 314.855 46.3291C314.753 47.4308 314.65 48.5325 314.545 49.6676C314.434 50.9277 314.434 50.9277 314.32 52.2132C311.397 49.2907 311.651 48.6798 311.568 44.7244C311.074 38.7211 308.735 35.4688 304.875 30.9742C303.313 28.9825 303.313 28.9825 303.313 26.5372C302.506 26.5372 301.699 26.5372 300.867 26.5372C300.816 25.8059 300.766 25.0746 300.714 24.3211C299.794 21.2174 299.794 21.2174 295.898 19.5069C294.713 19.0025 293.527 18.4982 292.306 17.9785C294.465 17.1809 294.465 17.1809 297.198 16.7559C299.548 17.9738 299.548 17.9738 301.784 19.7361C302.535 20.3145 303.285 20.893 304.058 21.4889C304.62 21.9444 305.181 22.3999 305.759 22.8692C304.813 21.4318 304.813 21.4318 303.848 19.9654C303.268 18.9062 302.688 17.8471 302.09 16.7559C302.494 15.9489 302.897 15.1419 303.313 14.3105Z" fill="#BACBD4"/>
<path d="M310.651 53.4356C312.266 53.4356 313.88 53.4356 315.543 53.4356C316.461 56.7215 316.461 56.7215 316.766 60.7716C314.779 63.9811 314.779 63.9811 311.874 66.8849C311.042 67.818 310.209 68.751 309.352 69.7124C303.87 72.8606 298.486 72.1651 292.306 71.7756C292.306 70.9687 292.306 70.1617 292.306 69.3303C297.956 66.9094 303.607 64.4885 309.428 61.9943C306.106 63.1013 302.888 64.3476 299.644 65.6623C299.644 64.4518 299.644 63.2414 299.644 61.9943C300.855 61.5908 302.065 61.1873 303.313 60.7716C303.717 59.9646 304.12 59.1577 304.536 58.3263C305.747 58.3263 306.958 58.3263 308.205 58.3263C308.205 57.5193 308.205 56.7124 308.205 55.8809C309.012 55.8809 309.82 55.8809 310.651 55.8809C310.651 55.074 310.651 54.267 310.651 53.4356Z" fill="#C5D5DF"/>
<path d="M283.744 13.0879C284.955 13.8948 286.166 14.7018 287.414 15.5332C287.414 16.3402 287.414 17.1471 287.414 17.9785C286.203 17.9785 284.992 17.9785 283.744 17.9785C283.744 18.7855 283.744 19.5925 283.744 20.4239C284.678 20.1717 285.611 19.9195 286.573 19.6597C289.86 19.2012 289.86 19.2012 293.529 21.6465C292.318 22.4535 291.107 23.2605 289.86 24.0919C288.649 25.9075 288.649 25.9075 287.414 27.7599C284.356 26.0787 284.356 26.0787 281.298 24.0919C281.298 23.2849 281.298 22.478 281.298 21.6465C280.461 22.0595 279.624 22.4724 278.761 22.8979C274.454 24.3352 271.353 24.0879 266.851 23.6334C265.431 23.4978 264.01 23.3623 262.547 23.2226C261.47 23.106 260.393 22.9894 259.284 22.8692C259.284 22.4657 259.284 22.0622 259.284 21.6465C260.797 21.5205 262.311 21.3944 263.87 21.2645C268.187 20.7442 270.746 19.8356 273.96 16.7559C273.557 15.9489 273.153 15.1419 272.737 14.3105C276.502 13.1954 279.82 12.7861 283.744 13.0879Z" fill="#EAEAE8"/>
<path d="M254.391 74.2211C255.198 77.0454 256.005 79.8698 256.837 82.7797C254.446 84.2126 252.05 85.6376 249.652 87.0591C248.318 87.8534 246.984 88.6478 245.61 89.4662C242.161 91.3384 242.161 91.3384 239.715 91.3384C239.715 89.7245 239.715 88.1106 239.715 86.4477C238.504 86.4477 237.293 86.4477 236.045 86.4477C237.704 81.4733 240.451 79.7616 244.607 76.6664C247.435 75.7494 247.435 75.7494 249.499 75.4437C250.722 74.2211 250.722 74.2211 254.391 74.2211Z" fill="#354874"/>
<path d="M167.173 41.1325C169.337 41.149 169.337 41.149 171.545 41.1659C172.65 41.1801 173.755 41.1943 174.894 41.2089C175.297 42.0159 175.701 42.8228 176.117 43.6542C174.729 43.8056 173.342 43.9569 171.913 44.1127C169.756 44.491 169.756 44.491 167.555 44.8769C167.152 45.6839 166.748 46.4908 166.332 47.3222C163.882 48.4589 163.882 48.4589 160.752 49.6148C156.564 51.2043 152.621 52.9215 148.675 55.0403C144.318 57.1036 144.318 57.1036 140.649 55.8809C141.859 55.4774 143.07 55.074 144.318 54.6583C145.161 53.0425 145.974 51.4102 146.764 49.7676C148.747 47.7282 148.747 47.7282 150.968 45.8703C151.698 45.2478 152.428 44.6252 153.18 43.9838C157.65 40.7496 161.851 41.0798 167.173 41.1325Z" fill="#D7DEDF"/>
<path d="M251.945 55.881C252.349 56.688 252.752 57.4949 253.168 58.3264C251.472 61.718 249.08 62.5198 245.83 64.4397C244.846 65.2719 243.862 66.1041 242.849 66.9614C239.406 69.5634 236.498 70.574 232.376 71.7757C230.976 72.4566 230.976 72.4566 229.548 73.1512C224.793 74.6989 220.212 74.4154 215.254 74.221C215.254 73.8176 215.254 73.4141 215.254 72.9984C217.676 72.5949 220.097 72.1914 222.592 71.7757C222.643 71.0444 222.693 70.3131 222.745 69.5596C223.815 66.885 223.815 66.885 227.179 64.6689C231.564 63.067 232.873 63.5608 237.269 64.4397C242.083 62.5524 244.157 61.4461 247.053 57.1037C249.652 56.2631 249.652 56.2631 251.945 55.881Z" fill="#7090AB"/>
<path d="M337.558 43.6544C338.365 43.6544 339.172 43.6544 340.004 43.6544C340.004 44.4614 340.004 45.2684 340.004 46.0998C342.022 46.5033 344.04 46.9067 346.119 47.3224C343.698 48.5329 343.698 48.5329 341.227 49.7678C342.435 49.7394 343.642 49.711 344.887 49.6818C346.454 49.6597 348.021 49.6377 349.635 49.6149C351.977 49.5724 351.977 49.5724 354.365 49.529C358.349 49.7678 358.349 49.7678 360.796 52.2131C361.199 53.4236 361.603 54.634 362.019 55.8811C352.938 54.6707 352.938 54.6707 343.673 53.4358C343.269 55.0497 342.866 56.6636 342.45 58.3265C341.845 59.6882 341.239 61.05 340.615 62.453C338.946 66.4859 338.083 69.9135 337.558 74.2211C337.154 74.2211 336.751 74.2211 336.335 74.2211C335.699 65.6363 337.732 60.0742 341.227 52.2131C333.962 51.0027 333.962 51.0027 326.551 49.7678C330.752 46.9677 332.648 47.1043 337.558 47.3224C337.558 46.112 337.558 44.9016 337.558 43.6544Z" fill="#8AA3B4"/>
<path d="M315.543 30.2051C319.168 33.6385 322.202 36.5424 324.104 41.2092C325.967 37.6179 327.53 33.9748 328.996 30.2051C331.327 34.1321 331.715 36.9773 331.595 41.5148C331.573 42.6055 331.551 43.6961 331.528 44.8198C331.486 46.0587 331.486 46.0587 331.442 47.3225C326.55 47.3225 326.55 47.3225 324.41 45.4885C323.905 44.8833 323.401 44.2781 322.881 43.6545C322.881 46.0754 322.881 48.4963 322.881 50.9905C321.267 50.9905 319.652 50.9905 317.989 50.9905C316.147 43.8897 315.276 37.5434 315.543 30.2051Z" fill="#B1CADB"/>
<path d="M254.391 25.3144C258.831 25.3144 263.271 25.3144 267.845 25.3144C267.441 26.5248 267.038 27.7353 266.622 28.9824C270.254 28.1754 273.887 27.3685 277.629 26.5371C277.629 27.344 277.629 28.151 277.629 28.9824C275.611 29.3859 273.593 29.7894 271.514 30.2051C272.321 30.6086 273.128 31.012 273.96 31.4277C273.556 32.6382 273.153 33.8486 272.737 35.0957C268.533 37.0826 268.533 37.0826 264.176 38.7637C262.965 39.369 262.965 39.369 261.73 39.9864C261.73 38.776 261.73 37.5655 261.73 36.3184C259.139 34.6635 259.139 34.6635 255.614 36.3184C253.168 35.0957 253.168 35.0957 251.945 32.6504C253.56 31.8434 255.174 31.0365 256.837 30.2051C256.03 28.5911 255.223 26.9772 254.391 25.3144Z" fill="#B4C3CD"/>
<path d="M255.614 50.9903C256.266 53.1255 256.899 55.2663 257.525 57.4093C257.88 58.6008 258.235 59.7923 258.6 61.02C259.274 64.3937 259.207 66.1407 258.06 69.3303C257.505 68.3468 256.95 67.3633 256.379 66.3501C254.7 63.1087 254.7 63.1087 251.945 61.9943C251.541 63.6082 251.138 65.2221 250.722 66.885C252.336 67.2885 253.951 67.6919 255.614 68.1076C255.211 68.9146 254.807 69.7216 254.391 70.553C253.988 70.553 253.584 70.553 253.168 70.553C253.168 71.7634 253.168 72.9739 253.168 74.221C250.722 76.2842 250.722 76.2842 248.276 77.889C247.469 77.4855 246.662 77.082 245.83 76.6663C246.637 75.8594 247.444 75.0524 248.276 74.221C245.854 74.6245 243.433 75.0279 240.938 75.4436C242.346 72.4261 243.442 70.4945 245.83 68.1076C246.622 64.9646 246.622 64.9646 247.053 61.9943C248.667 61.5908 250.282 61.1873 251.945 60.7716C252.349 58.3507 252.752 55.9299 253.168 53.4356C251.15 53.8391 249.132 54.2426 247.053 54.6583C250.111 50.9896 250.401 50.9903 255.614 50.9903Z" fill="#5A748D"/>
<path d="M251.945 61.9945C256.171 63.4026 256.968 64.4257 259.283 68.1078C260.048 70.6296 260.048 70.6296 260.506 72.9985C260.91 74.2089 261.313 75.4194 261.729 76.6665C259.283 76.6665 259.283 76.6665 256.837 74.2211C257.056 75.0187 257.275 75.8162 257.501 76.6378C258.804 81.9916 259.585 85.4346 257.984 90.8036C255.614 93.7838 255.614 93.7838 252.327 94.8537C251.394 94.9041 250.461 94.9545 249.499 95.0065C249.903 92.5856 250.306 90.1647 250.722 87.6705C249.915 87.267 249.108 86.8635 248.276 86.4478C254.085 82.7798 254.085 82.7798 256.837 82.7798C256.47 81.9256 256.102 81.0713 255.724 80.1912C255.259 79.0785 254.794 77.9658 254.315 76.8193C253.846 75.7129 253.378 74.6065 252.896 73.4665C251.945 70.5531 251.945 70.5531 253.168 68.1078C250.631 67.9255 250.631 67.9255 248.276 69.3305C249.499 66.8851 250.722 64.4398 251.945 61.9945Z" fill="#6F8CAC"/>
<path d="M146.764 72.9982C138.967 75.9919 131.86 77.3022 123.526 77.8889C130.791 77.2837 130.791 77.2837 138.203 76.6662C138.606 77.4732 139.01 78.2802 139.426 79.1116C140.233 79.515 141.04 79.9185 141.872 80.3342C137.476 82.3359 134.094 83.0747 129.274 83.0184C128.079 83.0105 126.885 83.0026 125.655 82.9945C124.423 82.974 123.19 82.9535 121.921 82.9324C120.665 82.9214 119.41 82.9103 118.116 82.899C115.027 82.8702 111.938 82.8301 108.85 82.7796C108.85 82.3761 108.85 81.9726 108.85 81.5569C112.886 81.1534 116.922 80.7499 121.08 80.3342C115.632 79.1238 115.632 79.1238 110.073 77.8889C110.073 77.4854 110.073 77.0819 110.073 76.6662C110.819 76.5615 111.565 76.4568 112.334 76.3489C115.733 75.8707 119.133 75.3897 122.533 74.9086C124.293 74.6616 124.293 74.6616 126.089 74.4096C127.228 74.248 128.368 74.0865 129.541 73.92C130.585 73.7727 131.629 73.6255 132.705 73.4737C134.823 73.1438 136.93 72.7461 139.026 72.2959C142.058 71.7415 143.869 72.0335 146.764 72.9982Z" fill="#CFDBE2"/>
<path d="M294.752 6.97429C294.752 5.76384 294.752 4.5534 294.752 3.30628C295.962 3.70976 297.173 4.11324 298.421 4.52895C298.421 5.73939 298.421 6.94983 298.421 8.19695C293.365 10.9345 291.181 12.1155 285.426 11.0244C284.628 10.7706 283.831 10.5169 283.009 10.2554C276.882 8.50965 270.473 7.87641 264.176 6.97429C271.744 -0.592046 286.133 3.14504 294.752 6.97429Z" fill="#ACB9BF"/>
<path d="M178.562 58.3262C177.512 58.8345 177.512 58.8345 176.441 59.353C168.969 63.1784 163.148 67.2456 158.077 73.9916C154.988 77.7316 153.517 78.9616 148.732 80.0859C144.78 80.3766 140.937 80.485 136.979 80.3342C137.383 79.1238 137.786 77.9133 138.202 76.6662C141.007 75.4531 141.007 75.4531 144.547 74.3737C150.674 72.3239 154.247 69.9335 158.994 65.6622C160.205 65.6622 161.416 65.6622 162.663 65.6622C163.067 64.4518 163.47 63.2413 163.886 61.9942C168.896 59.3935 172.89 57.8107 178.562 58.3262Z" fill="#DEEAEF"/>
<path d="M324.104 64.4399C325.315 64.8434 326.526 65.2469 327.773 65.6626C327.773 68.0835 327.773 70.5043 327.773 72.9986C326.562 73.6038 326.562 73.6038 325.327 74.2212C325.504 74.9447 325.68 75.6681 325.862 76.4135C327.049 81.4659 328.111 86.1092 327.773 91.3386C327.584 90.166 327.584 90.166 327.391 88.9697C327.114 88.1375 326.836 87.3053 326.55 86.4479C325.339 86.0444 324.129 85.641 322.881 85.2253C321.429 81.4808 321.429 81.4808 320.435 77.8892C320.435 81.5206 320.435 85.1519 320.435 88.8933C320.031 88.0863 319.628 87.2793 319.212 86.4479C318.405 86.0444 317.598 85.641 316.766 85.2253C315.959 84.4183 315.151 83.6113 314.32 82.7799C315.251 80.4065 316.197 78.0386 317.148 75.6732C317.673 74.354 318.198 73.0348 318.739 71.6756C320.256 68.4852 321.432 66.6724 324.104 64.4399Z" fill="#4E7896"/>
<path d="M305.759 14.3105C313.639 14.6321 317.495 17.2187 322.881 22.8692C326.095 26.4036 327.763 28.548 327.792 33.3861C327.5 36.436 327.098 39.4183 326.55 42.4319C326.147 42.4319 325.743 42.4319 325.327 42.4319C325.024 41.3728 324.722 40.3136 324.41 39.2224C321.212 30.59 315.623 24.5619 308.434 18.972C307.551 18.2406 306.668 17.5093 305.759 16.7559C305.759 15.9489 305.759 15.1419 305.759 14.3105Z" fill="#657F8F"/>
<path d="M174.893 44.8772C174.893 45.6842 174.893 46.4911 174.893 47.3225C176.596 47.5495 176.596 47.5495 178.333 47.781C182.232 48.5452 182.232 48.5452 185.901 50.9905C184.792 50.8881 183.684 50.7857 182.542 50.6801C174.033 49.969 166.214 49.6808 157.771 50.9905C157.631 51.7423 157.49 52.4941 157.346 53.2687C156.168 57.1255 153.652 58.4955 150.433 60.7719C149.222 61.3771 149.222 61.3771 147.987 61.9946C147.255 62.3728 146.524 62.7511 145.77 63.1408C142.89 64.5393 139.962 65.7254 136.979 66.8852C138.61 65.255 140.241 63.6248 141.871 61.9946C143.309 60.5193 143.309 60.5193 144.776 59.0143C153.348 50.6491 162.299 44.2625 174.893 44.8772Z" fill="#728794"/>
<path d="M72.1588 64.4399C73.7732 64.8434 75.3876 65.2469 77.0509 65.6626C76.6473 66.4695 76.2437 67.2765 75.8279 68.1079C78.2495 68.1079 80.6711 68.1079 83.1661 68.1079C83.7715 69.3183 83.7715 69.3183 84.3891 70.5532C85.5999 71.3602 86.8107 72.1672 88.0582 72.9986C73.125 72.9986 58.1917 72.9986 42.8059 72.9986C42.8059 72.1916 42.8059 71.3847 42.8059 70.5532C43.8401 70.5816 44.8744 70.61 45.9399 70.6392C55.5399 70.7919 63.0697 69.914 72.1588 66.8852C72.1588 66.0783 72.1588 65.2713 72.1588 64.4399Z" fill="#98B0BE"/>
<path d="M291.083 21.6463C292.948 21.7556 294.809 21.9463 296.663 22.1812C298.179 22.368 298.179 22.368 299.725 22.5585C300.505 22.6609 301.286 22.7634 302.09 22.8689C301.686 24.0794 301.283 25.2898 300.867 26.5369C301.674 26.5369 302.481 26.5369 303.313 26.5369C304.628 29.7798 305.875 32.9971 306.982 36.3183C300.352 34.6613 294.656 32.2024 288.636 28.9823C289.707 23.0218 289.707 23.0218 291.083 21.6463Z" fill="#EAEFEF"/>
<path d="M95.3967 66.8849C108.716 66.8849 122.034 66.8849 135.757 66.8849C136.362 68.7005 136.362 68.7005 136.98 70.5529C126.473 74.9755 115.939 73.1157 105.181 70.5529C105.181 70.1494 105.181 69.7459 105.181 69.3302C101.952 68.9267 98.7234 68.5233 95.3967 68.1075C95.3967 67.7041 95.3967 67.3006 95.3967 66.8849Z" fill="#849AAA"/>
<path d="M298.421 4.52895C302.86 4.93243 307.3 5.33591 311.874 5.75161C311.874 6.15509 311.874 6.55857 311.874 6.97428C309.452 6.97428 307.031 6.97428 304.536 6.97428C304.536 7.78124 304.536 8.5882 304.536 9.41962C305.974 9.19266 305.974 9.19266 307.441 8.96112C313.878 9.6269 319.219 12.5154 324.104 16.7556C325.074 20.0654 325.074 20.0654 325.327 22.869C324.079 21.7342 324.079 21.7342 322.805 20.5765C317.162 16.4956 311.459 15.1135 304.536 15.533C304.536 13.919 304.536 12.3051 304.536 10.6423C302.518 11.0458 300.5 11.4492 298.421 11.865C297.613 10.6545 296.806 9.44407 295.975 8.19695C296.782 8.19695 297.589 8.19695 298.421 8.19695C298.421 6.98651 298.421 5.77607 298.421 4.52895Z" fill="#90999A"/>
<path d="M217.853 32.6505C218.61 33.054 219.367 33.4575 220.146 33.8732C218.936 34.4784 218.936 34.4784 217.7 35.0958C217.7 35.9028 217.7 36.7098 217.7 37.5412C215.682 37.5412 213.664 37.5412 211.585 37.5412C213.2 37.1377 214.814 36.7342 216.477 36.3185C216.477 35.5115 216.477 34.7046 216.477 33.8732C214.743 34.2214 213.011 34.5801 211.279 34.943C210.314 35.1416 209.35 35.3402 208.356 35.5448C205.509 36.3081 203.158 37.3558 200.578 38.7638C200.981 37.5534 201.385 36.343 201.801 35.0958C197.121 39.2821 194.802 42.4407 193.24 48.5452C191.222 48.9487 189.204 49.3521 187.124 49.7678C186.721 48.1539 186.317 46.54 185.901 44.8772C186.709 44.8772 187.516 44.8772 188.347 44.8772C190.07 42.8069 190.07 42.8069 191.787 40.2158C198.669 30.8947 206.795 29.113 217.853 32.6505Z" fill="#A3BCCE"/>
<path d="M259.283 10.6424C260.494 11.0459 261.705 11.4494 262.952 11.8651C261.447 16.3809 260.349 16.5857 256.226 18.6662C252.064 20.5658 252.064 20.5658 249.499 24.0917C250.306 24.4952 251.113 24.8987 251.945 25.3144C250.576 26.5443 249.198 27.7654 247.817 28.9824C246.668 30.0037 246.668 30.0037 245.495 31.0457C243.384 32.6504 243.384 32.6504 240.938 32.6504C240.173 29.823 240.173 29.823 239.715 26.5371C240.522 25.3266 241.329 24.1162 242.161 22.8691C242.968 22.8691 243.775 22.8691 244.607 22.8691C244.935 22.1378 245.263 21.4065 245.6 20.653C248.687 14.9696 251.935 13.7286 258.06 11.8651C258.464 11.4616 258.867 11.0581 259.283 10.6424Z" fill="#E5E9ED"/>
<path d="M208.069 22.487C209.663 22.4563 209.663 22.4563 211.289 22.425C212.194 22.5715 213.099 22.7181 214.031 22.8691C214.838 24.0796 215.646 25.29 216.477 26.5371C220.86 26.843 220.86 26.843 225.039 26.5371C224.231 27.3441 223.424 28.1511 222.592 28.9825C224.207 29.3859 225.821 29.7894 227.485 30.2051C225.87 31.4156 224.256 32.626 222.592 33.8731C221.483 33.2931 220.373 32.7131 219.229 32.1156C212.9 29.3498 206.17 29.3069 199.355 28.9825C199.355 28.1755 199.355 27.3685 199.355 26.5371C198.548 26.1337 197.74 25.7302 196.909 25.3145C200.744 23.0761 203.642 22.5069 208.069 22.487Z" fill="#B8C7CE"/>
<path d="M322.881 43.6544C324.092 44.0579 325.303 44.4614 326.551 44.8771C326.551 45.6841 326.551 46.491 326.551 47.3224C327.761 47.7259 328.972 48.1294 330.22 48.5451C331.431 48.9486 332.641 49.3521 333.889 49.7678C334.721 49.9695 335.554 50.1713 336.411 50.3791C338.781 50.9904 338.781 50.9904 341.227 52.2131C341.227 53.0201 341.227 53.827 341.227 54.6585C340.016 54.6585 338.805 54.6585 337.558 54.6585C337.154 55.8689 336.751 57.0793 336.335 58.3265C336.335 57.5195 336.335 56.7125 336.335 55.8811C335.629 56.3098 334.922 56.7385 334.195 57.1802C331.005 58.5088 329.738 58.2417 326.551 57.1038C326.954 56.7003 327.358 56.2968 327.774 55.8811C325.756 55.8811 323.738 55.8811 321.658 55.8811C321.86 55.2255 322.062 54.5698 322.27 53.8943C323 50.4294 322.962 47.1855 322.881 43.6544Z" fill="#ABC4D4"/>
<path d="M178.563 60.7717C175.728 62.6615 173.052 64.1905 170.002 65.6623C170.789 65.7537 171.576 65.8452 172.386 65.9393C182.28 67.3786 190.47 70.9533 199.355 75.4437C199.355 75.8471 199.355 76.2506 199.355 76.6663C194.143 76.241 191.515 75.9391 187.125 72.9219C180.567 68.8021 171.294 69.5883 163.887 70.553C161.501 72.2354 161.501 72.2354 160.218 74.221C159.411 73.8175 158.603 73.414 157.772 72.9983C163.831 65.3999 168.145 60.045 178.563 60.7717Z" fill="#576B7D"/>
<path d="M306.982 16.7555C315.241 22.04 319.944 28.2455 325.327 36.3182C324.869 39.6041 324.869 39.6041 324.104 42.4316C320.806 39.1346 319.031 35.5038 316.766 31.4275C316.362 33.0415 315.959 34.6554 315.543 36.3182C314.313 34.3354 313.092 32.3476 311.874 30.3577C311.193 29.2513 310.512 28.1449 309.81 27.0049C308.205 24.0915 308.205 24.0915 308.205 21.6462C307.82 20.0105 307.415 18.3792 306.982 16.7555Z" fill="#9DBCD0"/>
<path d="M269.374 39.8333C270.433 40.5142 270.433 40.5142 271.514 41.2088C271.326 42.0709 271.139 42.9331 270.945 43.8213C270.283 47.364 269.906 50.8388 269.603 54.4289C269.449 56.2186 269.449 56.2186 269.292 58.0444C269.218 58.9443 269.144 59.8443 269.068 60.7715C268.664 59.1576 268.261 57.5437 267.845 55.8808C264.212 55.2756 264.212 55.2756 260.507 54.6582C260.708 53.7503 260.91 52.8425 261.118 51.9072C261.875 48.3124 261.875 48.3124 261.73 43.6541C261.73 42.8472 261.73 42.0402 261.73 41.2088C265.944 38.5001 265.944 38.5001 269.374 39.8333Z" fill="#809BB2"/>
<path d="M179.199 49.5335C182.195 49.7647 184.282 49.4523 187.125 48.5449C187.125 49.7553 187.125 50.9657 187.125 52.2129C186.09 52.2869 185.056 52.361 183.991 52.4373C170.695 53.0921 170.695 53.0921 157.772 55.8809C156.293 58.3264 156.293 58.3264 155.326 60.7715C154.115 60.3681 152.904 59.9646 151.656 59.5489C152.829 58.4519 152.829 58.4519 154.026 57.3328C156.797 54.7706 156.797 54.7706 157.772 50.9902C164.634 47.8632 171.934 48.5379 179.199 49.5335Z" fill="#99B2C2"/>
<path d="M229.93 32.6501C231.309 36.7861 230.93 38.4796 230.007 42.6607C229.769 43.7624 229.531 44.8641 229.285 45.9992C229.095 46.8392 228.904 47.6793 228.707 48.5448C227.497 48.9483 226.286 49.3518 225.038 49.7675C224.231 47.7501 223.424 45.7327 222.592 43.6541C219.94 44.2729 217.7 44.8766 215.254 46.0995C212.808 46.1484 210.361 46.1526 207.916 46.0995C209.139 42.4315 209.139 42.4315 212.044 40.9796C215.254 39.9861 215.254 39.9861 218.923 39.9861C218.923 39.1792 218.923 38.3722 218.923 37.5408C220.02 38.1839 220.02 38.1839 221.14 38.8399C223.947 40.3934 223.947 40.3934 227.484 38.7635C228.975 35.7013 228.975 35.7013 229.93 32.6501Z" fill="#D5DEE7"/>
<path d="M309.428 59.549C309.428 60.7595 309.428 61.9699 309.428 63.2171C306.627 64.4451 303.824 65.6669 301.019 66.8851C300.223 67.2349 299.427 67.5848 298.607 67.9453C292.582 70.5531 292.582 70.5531 289.859 70.5531C289.859 71.36 289.859 72.167 289.859 72.9984C288.245 72.9984 286.63 72.9984 284.967 72.9984C284.967 71.788 284.967 70.5775 284.967 69.3304C284.16 70.1374 283.353 70.9443 282.521 71.7757C281.31 72.3809 281.31 72.3809 280.075 72.9984C278.057 71.3845 276.039 69.7706 273.96 68.1077C277.592 67.3008 281.225 66.4938 284.967 65.6624C284.967 66.4693 284.967 67.2763 284.967 68.1077C292.68 67.582 303.837 65.1384 309.428 59.549Z" fill="#A2B1BA"/>
<path d="M196.909 55.881C197.842 56.2593 198.775 56.6375 199.737 57.0273C204.507 58.9125 208.551 59.8171 213.649 60.2368C214.865 60.3392 216.08 60.4417 217.332 60.5472C218.725 60.6583 218.725 60.6583 220.146 60.7717C219.743 61.9821 219.339 63.1926 218.923 64.4397C207.31 66.5888 207.31 66.5888 201.724 63.5991C198.132 60.7717 198.132 60.7717 196.985 58.0207C196.96 57.3146 196.935 56.6085 196.909 55.881Z" fill="#F1F6F7"/>
<path d="M147.987 59.549C149.198 59.9525 150.409 60.356 151.657 60.7717C149.091 65.7657 146.822 67.9609 141.872 70.5531C140.914 71.2339 139.955 71.9148 138.968 72.6163C134.878 74.6604 131.706 74.4863 127.196 74.2211C129.913 71.5044 132.192 70.6436 135.757 69.3304C135.353 68.12 134.95 66.9095 134.534 65.6624C135.644 65.5363 136.754 65.4102 137.897 65.2803C142.408 64.3265 144.782 62.7538 147.987 59.549Z" fill="#9DB5C7"/>
<path d="M258.06 27.7595C258.464 28.5665 258.867 29.3735 259.283 30.2049C257.669 31.4153 256.054 32.6257 254.391 33.8729C255.602 33.8729 256.813 33.8729 258.06 33.8729C259.271 33.8729 260.482 33.8729 261.729 33.8729C261.729 36.5094 261.183 38.6712 260.506 41.2089C259.74 41.1064 258.974 41.004 258.184 40.8984C257.185 40.7739 256.185 40.6494 255.155 40.5211C253.665 40.3296 253.665 40.3296 252.146 40.1343C249.439 39.7632 249.439 39.7632 247.053 41.2089C247.639 35.9344 249.188 33.6703 253.168 30.2049C252.764 29.3979 252.361 28.5909 251.945 27.7595C254.391 26.5369 254.391 26.5369 258.06 27.7595ZM261.729 35.0955C264.175 36.3182 264.175 36.3182 264.175 36.3182L261.729 35.0955Z" fill="#D1DDE6"/>
<path d="M174.665 54.4291C176.161 54.4117 177.657 54.3944 179.199 54.3765C183.243 54.6443 185.949 55.3591 189.571 57.1036C185.284 59.7663 182.013 59.7377 177.034 59.549C170.49 59.431 165.22 60.0418 158.995 61.9943C164.187 55.2462 166.157 54.4736 174.665 54.4291Z" fill="#D4E5ED"/>
<path d="M249.499 74.2211C248.389 74.9272 247.279 75.6333 246.135 76.3607C242.747 78.7056 240.058 80.9996 237.268 84.0024C236.461 82.792 235.654 81.5815 234.822 80.3344C233.834 80.6875 232.845 81.0405 231.827 81.4042C229.866 82.0851 229.866 82.0851 227.866 82.7797C225.93 83.4606 225.93 83.4606 223.954 84.1552C220.411 85.1507 217.679 85.4416 214.031 85.2251C217.939 83.1219 221.881 81.7495 226.108 80.4108C231.314 78.712 236.105 76.8226 240.938 74.2211C244.77 72.944 245.817 73.0788 249.499 74.2211Z" fill="#243353"/>
<path d="M92.9507 69.3303C93.3543 70.1373 93.7579 70.9442 94.1737 71.7757C95.6951 71.7473 97.2165 71.7189 98.784 71.6897C109.73 71.549 120.168 71.5296 130.865 74.221C130.865 74.6245 130.865 75.0279 130.865 75.4437C122.271 76.3583 113.823 76.835 105.181 76.6663C106.392 76.2628 107.603 75.8594 108.85 75.4437C108.85 74.6367 108.85 73.8297 108.85 72.9983C103.603 72.9983 98.3565 72.9983 92.9507 72.9983C92.9507 71.7879 92.9507 70.5774 92.9507 69.3303Z" fill="#B1C6D2"/>
<path d="M278.852 28.9825C278.852 30.193 278.852 31.4034 278.852 32.6505C281.274 33.4575 283.695 34.2645 286.19 35.0959C286.19 35.4994 286.19 35.9028 286.19 36.3185C285.142 36.3501 284.094 36.3816 283.013 36.4141C274.371 36.8427 268.943 37.7292 261.73 42.4319C260.519 42.0284 259.308 41.6249 258.061 41.2092C259.816 40.2119 261.575 39.2194 263.335 38.229C264.314 37.6758 265.293 37.1225 266.302 36.5526C269.068 35.0959 269.068 35.0959 272.737 33.8732C273.141 33.0662 273.544 32.2593 273.96 31.4279C271.942 31.4279 269.924 31.4279 267.845 31.4279C272.046 28.6278 273.942 28.7644 278.852 28.9825Z" fill="#5B778B"/>
</svg>
